<svg xmlns="http://www.w3.org/2000/svg"  viewBox="0 0 468 468" width="58px" height="58px"><path d="M447.383,376.525H72.154v-96.391c0-89.242,72.604-161.846,161.846-161.846s161.846,72.604,161.846,161.846v14.517h28.863 v-14.517c0-105.157-85.552-190.709-190.71-190.709S43.29,174.977,43.29,280.134v96.391H20.617C9.23,376.525,0,385.755,0,397.142 v45.704c0,11.386,9.23,20.617,20.617,20.617h426.767c11.386,0,20.617-9.23,20.617-20.617v-45.704 C468,385.755,458.77,376.525,447.383,376.525z"/><rect width="29.234" height="29.234" x="395.661" y="318.423"/><path d="M135.075,280.134c0-54.547,44.377-98.925,98.925-98.925v-28.863c-70.462,0-127.789,57.326-127.789,127.788H135.075z"/><rect width="28.863" height="53.197" x="219.568" y="4.538"/><rect width="28.863" height="53.197" x="63.173" y="69.319" transform="rotate(-45.001 77.604 95.92)"/><rect width="53.197" height="28.863" x="363.797" y="81.486" transform="rotate(-45.001 390.393 95.923)"/></svg>