<svg width="67" height="67" viewBox="0 0 67 67" fill="none" xmlns="http://www.w3.org/2000/svg">
<circle cx="33.5" cy="33.5" r="33" stroke="#121212"/>
<path d="M47 35.5003H23V24.2503C22.9988 23.8267 23.0817 23.407 23.2439 23.0156C23.406 22.6241 23.6442 22.2688 23.9446 21.97L23.9696 21.945C24.4404 21.4749 25.0448 21.1616 25.7003 21.048C26.3558 20.9343 27.0305 21.0258 27.6321 21.3099C27.0639 22.2545 26.8278 23.3619 26.9611 24.4561C27.0945 25.5503 27.5898 26.5686 28.3682 27.3491L29.0526 28.0335L27.7928 29.2934L29.2069 30.7075L30.4668 29.4477L37.4473 22.4673L38.7071 21.2074L37.2929 19.7933L36.0331 21.0531L35.3486 20.3686C34.5292 19.5515 33.449 19.0477 32.2962 18.9452C31.1435 18.8427 29.9914 19.1479 29.0406 19.8076C28.0379 19.1745 26.8498 18.9011 25.6713 19.0325C24.4928 19.1639 23.394 19.6922 22.5554 20.5306L22.5304 20.5556C22.0437 21.0397 21.6578 21.6155 21.3951 22.2497C21.1324 22.8839 20.9981 23.5639 21 24.2503V35.5003H19V37.5003H21V39.4191C21 39.5803 21.026 39.7405 21.077 39.8934L22.9375 45.4746C23.0368 45.7734 23.2277 46.0334 23.4831 46.2175C23.7386 46.4016 24.0455 46.5006 24.3604 46.5003H25.1666L24.4375 49.0003H26.5208L27.25 46.5003H40.2563L41.0063 49.0003H43.0938L42.3438 46.5003H43.6394C43.9543 46.5006 44.2613 46.4017 44.5168 46.2176C44.7722 46.0334 44.9632 45.7735 45.0625 45.4746L46.9229 39.8934C46.9739 39.7405 47 39.5803 47 39.4191V37.5003H49V35.5003H47ZM29.7825 21.7828C30.3335 21.233 31.0801 20.9243 31.8585 20.9243C32.6368 20.9243 33.3834 21.233 33.9344 21.7828L34.6187 22.4673L30.4669 26.6191L29.7825 25.9348C29.2327 25.3837 28.924 24.6372 28.924 23.8588C28.924 23.0804 29.2327 22.3338 29.7825 21.7828ZM45 39.3378L43.2792 44.5003H24.7207L23 39.3378V37.5003H45V39.3378Z" fill="#121212"/>
</svg>
