<svg xmlns="http://www.w3.org/2000/svg"  viewBox="0 0 24 24" width="24px" height="24px" clip-rule="evenodd"><path d="M 3 2.25 C 1.992 2.25 1.25 2.9927813 1.25 3.8007812 L 1.25 6.1992188 C 1.25 6.7879424 1.6462897 7.3385414 2.25 7.5957031 L 2.25 12 C 2.25 17.385 6.615 21.75 12 21.75 C 17.385 21.75 21.75 17.385 21.75 12 L 21.75 7.5957031 C 22.35371 7.3385414 22.75 6.7879424 22.75 6.1992188 L 22.75 3.8007812 C 22.75 2.9927812 22.008 2.25 21 2.25 L 3 2.25 z M 3 3.75 L 21 3.75 C 21.092 3.75 21.216 3.8169375 21.25 3.8359375 L 21.25 6.1640625 C 21.216 6.1830625 21.092 6.25 21 6.25 L 3 6.25 C 2.908 6.25 2.784 6.1830625 2.75 6.1640625 L 2.75 3.8359375 C 2.784 3.8169375 2.908 3.75 3 3.75 z M 3.75 7.75 L 20.25 7.75 L 20.25 12 C 20.25 16.556 16.556 20.25 12 20.25 C 7.444 20.25 3.75 16.556 3.75 12 L 3.75 7.75 z M 12 10.25 C 9.654 10.25 7.75 12.154 7.75 14.5 C 7.75 16.846 9.654 18.75 12 18.75 C 14.346 18.75 16.25 16.846 16.25 14.5 C 16.25 12.154 14.346 10.25 12 10.25 z M 12 11.75 C 13.518 11.75 14.75 12.982 14.75 14.5 C 14.75 16.018 13.518 17.25 12 17.25 C 10.482 17.25 9.25 16.018 9.25 14.5 C 9.25 12.982 10.482 11.75 12 11.75 z M 12 13.5 C 11.448 13.5 11 13.948 11 14.5 C 11 15.052 11.448 15.5 12 15.5 C 12.552 15.5 13 15.052 13 14.5 C 13 13.948 12.552 13.5 12 13.5 z"/></svg>