<svg width="67" height="67" viewBox="0 0 67 67" fill="none" xmlns="http://www.w3.org/2000/svg">
<circle cx="33.5" cy="33.5" r="33" stroke="#121212"/>
<path d="M43.9126 33.3315H40.2859V24.0781C40.2859 23.5477 40.0752 23.039 39.7001 22.6639C39.3251 22.2888 38.8164 22.0781 38.2859 22.0781H29.7126C29.1822 22.0781 28.6735 22.2888 28.2984 22.6639C27.9233 23.039 27.7126 23.5477 27.7126 24.0781V33.3315H24.0859C23.5555 33.3315 23.0468 33.5422 22.6717 33.9172C22.2967 34.2923 22.0859 34.801 22.0859 35.3315V43.9181C22.0859 44.4486 22.2967 44.9573 22.6717 45.3323C23.0468 45.7074 23.5555 45.9181 24.0859 45.9181H32.6659C33.1601 45.9193 33.6364 45.7335 33.9993 45.3981C34.3635 45.7314 34.8389 45.9168 35.3326 45.9181H43.9193C44.4497 45.9181 44.9584 45.7074 45.3335 45.3323C45.7086 44.9573 45.9193 44.4486 45.9193 43.9181V35.3315C45.9193 35.0683 45.8673 34.8076 45.7664 34.5645C45.6655 34.3215 45.5176 34.1007 45.3311 33.9149C45.1447 33.7291 44.9234 33.5819 44.68 33.4818C44.4366 33.3817 44.1758 33.3306 43.9126 33.3315ZM33.3326 43.9181C33.3326 44.0949 33.2624 44.2645 33.1373 44.3895C33.0123 44.5146 32.8427 44.5848 32.6659 44.5848H24.0859C23.9091 44.5848 23.7396 44.5146 23.6145 44.3895C23.4895 44.2645 23.4193 44.0949 23.4193 43.9181V35.3315C23.4193 35.1546 23.4895 34.9851 23.6145 34.8601C23.7396 34.735 23.9091 34.6648 24.0859 34.6648H26.7126V37.3315C26.7126 37.5083 26.7828 37.6778 26.9079 37.8029C27.0329 37.9279 27.2025 37.9981 27.3793 37.9981H29.3793C29.5552 37.9954 29.7232 37.9243 29.8476 37.7998C29.9721 37.6754 30.0432 37.5074 30.0459 37.3315V34.6648H33.3326V43.9181ZM29.0459 33.3315V24.0781C29.0459 23.9013 29.1162 23.7317 29.2412 23.6067C29.3662 23.4817 29.5358 23.4115 29.7126 23.4115H32.3259V26.0781C32.3259 26.2549 32.3962 26.4245 32.5212 26.5495C32.6462 26.6746 32.8158 26.7448 32.9926 26.7448H34.9926C35.1694 26.7448 35.339 26.6746 35.464 26.5495C35.589 26.4245 35.6593 26.2549 35.6593 26.0781V23.4115H38.2859C38.4627 23.4115 38.6323 23.4817 38.7573 23.6067C38.8824 23.7317 38.9526 23.9013 38.9526 24.0781V33.3315H29.0459ZM44.5793 43.9181C44.5765 44.0941 44.5054 44.2621 44.381 44.3865C44.2565 44.5109 44.0886 44.582 43.9126 44.5848H35.3326C35.1566 44.582 34.9887 44.5109 34.8642 44.3865C34.7398 44.2621 34.6687 44.0941 34.6659 43.9181V34.6648H37.9593V37.3315C37.9593 37.5083 38.0295 37.6778 38.1545 37.8029C38.2796 37.9279 38.4491 37.9981 38.6259 37.9981H40.6259C40.8027 37.9981 40.9723 37.9279 41.0973 37.8029C41.2224 37.6778 41.2926 37.5083 41.2926 37.3315V34.6648H43.9193C44.0961 34.6648 44.2656 34.735 44.3907 34.8601C44.5157 34.9851 44.5859 35.1546 44.5859 35.3315L44.5793 43.9181Z" fill="#121212"/>
</svg>
