<?xml version="1.0"?><svg xmlns="http://www.w3.org/2000/svg"  viewBox="0 0 50 50" width="50px" height="50px">    <path d="M 1 4 C 0.448 4 0 4.447 0 5 C 0 5.553 0.448 6 1 6 L 3 6 L 3 7 L 3 46 L 8 46 C 8.7685837 46 9.4666468 45.695875 10 45.212891 C 10.533353 45.695875 11.231416 46 12 46 L 14 46 C 14.768584 46 15.466647 45.695875 16 45.212891 C 16.533353 45.695875 17.231416 46 18 46 L 23 46 L 23 40 L 23 4 L 22 4 L 20 4 L 20 6 L 21 6 L 21 7 C 21 7.5650302 20.56503 8 20 8 L 18 8 C 17.43497 8 17 7.5650302 17 7 L 17 4 L 14 4 L 14 6 L 15 6 L 15 7 C 15 7.5650302 14.56503 8 14 8 L 12 8 C 11.43497 8 11 7.5650302 11 7 L 11 4 L 8 4 L 8 6 L 9 6 L 9 7 C 9 7.5650302 8.5650302 8 8 8 L 6 8 C 5.4349698 8 5 7.5650302 5 7 L 5 6 L 5 4 L 3 4 L 1 4 z M 25 4 L 25 6 L 27 6 L 27 7 L 27 40 L 27 46 L 32 46 C 32.768584 46 33.466647 45.695875 34 45.212891 C 34.533353 45.695875 35.231416 46 36 46 L 38 46 C 38.768584 46 39.466647 45.695875 40 45.212891 C 40.533353 45.695875 41.231416 46 42 46 L 47 46 L 47 4 L 44 4 L 44 6 L 45 6 L 45 7 C 45 7.5650302 44.56503 8 44 8 L 42 8 C 41.43497 8 41 7.5650302 41 7 L 41 4 L 38 4 L 38 6 L 39 6 L 39 7 C 39 7.5650302 38.56503 8 38 8 L 36 8 C 35.43497 8 35 7.5650302 35 7 L 35 4 L 32 4 L 32 6 L 33 6 L 33 7 C 33 7.5650302 32.56503 8 32 8 L 30 8 C 29.43497 8 29 7.5650302 29 7 L 29 6 L 29 4 L 28 4 L 27 4 L 25 4 z M 48 4 L 48 6 L 49 6 C 49.552 6 50 5.553 50 5 C 50 4.447 49.552 4 49 4 L 48 4 z M 10 9.2128906 C 10.533353 9.6958751 11.231416 10 12 10 L 14 10 C 14.768584 10 15.466647 9.6958751 16 9.2128906 C 16.533353 9.6958751 17.231416 10 18 10 L 20 10 C 20.351843 10 20.685108 9.9260602 21 9.8125 L 21 40 L 21 44 L 18 44 C 17.43497 44 17 43.56503 17 43 L 17 40 A 1.0001 1.0001 0 1 0 15 40 L 15 43 C 15 43.56503 14.56503 44 14 44 L 12 44 C 11.43497 44 11 43.56503 11 43 L 11 32 A 1.0001 1.0001 0 0 0 9.984375 30.986328 A 1.0001 1.0001 0 0 0 9 32 L 9 43 C 9 43.56503 8.5650302 44 8 44 L 5 44 L 5 9.8125 C 5.3148915 9.9260602 5.6481575 10 6 10 L 8 10 C 8.7685837 10 9.4666468 9.6958751 10 9.2128906 z M 34 9.2128906 C 34.533353 9.6958751 35.231416 10 36 10 L 38 10 C 38.768584 10 39.466647 9.6958751 40 9.2128906 C 40.533353 9.6958751 41.231416 10 42 10 L 44 10 C 44.351843 10 44.685108 9.9260602 45 9.8125 L 45 44 L 42 44 C 41.43497 44 41 43.56503 41 43 L 41 27 A 1.0001 1.0001 0 0 0 39.984375 25.986328 A 1.0001 1.0001 0 0 0 39 27 L 39 43 C 39 43.56503 38.56503 44 38 44 L 36 44 C 35.43497 44 35 43.56503 35 43 L 35 37 A 1.0001 1.0001 0 1 0 33 37 L 33 43 C 33 43.56503 32.56503 44 32 44 L 29 44 L 29 40 L 29 9.8125 C 29.314892 9.9260602 29.648157 10 30 10 L 32 10 C 32.768584 10 33.466647 9.6958751 34 9.2128906 z M 9.984375 23.986328 A 1.0001 1.0001 0 0 0 9 25 L 9 28 A 1.0001 1.0001 0 1 0 11 28 L 11 25 A 1.0001 1.0001 0 0 0 9.984375 23.986328 z M 33.984375 29.986328 A 1.0001 1.0001 0 0 0 33 31 L 33 33 A 1.0001 1.0001 0 1 0 35 33 L 35 31 A 1.0001 1.0001 0 0 0 33.984375 29.986328 z"/></svg>