<svg xmlns="http://www.w3.org/2000/svg"  viewBox="0 0 50 50" width="50px" height="50px"><path d="M 5.8125 3 C 5.335938 3.089844 4.992188 3.511719 5 4 L 5 46 C 5 46.550781 5.449219 47 6 47 L 44 47 C 44.550781 47 45 46.550781 45 46 L 45 4 C 45 3.449219 44.550781 3 44 3 L 6 3 C 5.96875 3 5.9375 3 5.90625 3 C 5.875 3 5.84375 3 5.8125 3 Z M 7 5 L 43 5 L 43 13 L 7 13 Z M 27 7 C 25.894531 7 25 7.894531 25 9 C 25 10.105469 25.894531 11 27 11 C 28.105469 11 29 10.105469 29 9 C 29 7.894531 28.105469 7 27 7 Z M 33 7 C 31.894531 7 31 7.894531 31 9 C 31 10.105469 31.894531 11 33 11 C 34.105469 11 35 10.105469 35 9 C 35 7.894531 34.105469 7 33 7 Z M 39 7 C 37.894531 7 37 7.894531 37 9 C 37 10.105469 37.894531 11 39 11 C 40.105469 11 41 10.105469 41 9 C 41 7.894531 40.105469 7 39 7 Z M 7 15 L 43 15 L 43 45 L 7 45 Z M 27 19 L 27 41 L 29 41 L 29 38.90625 C 31.269531 38.4375 33 36.402344 33 34 L 33 26 C 33 23.597656 31.269531 21.5625 29 21.09375 L 29 19 Z M 35 19 L 35 41 L 37 41 L 37 38.90625 C 39.269531 38.4375 41 36.402344 41 34 L 41 26 C 41 23.597656 39.269531 21.5625 37 21.09375 L 37 19 Z M 29 23.40625 C 30.109375 23.847656 31 24.734375 31 26 L 31 34 C 31 35.265625 30.109375 36.152344 29 36.59375 Z M 37 23.40625 C 38.109375 23.847656 39 24.734375 39 26 L 39 34 C 39 35.265625 38.109375 36.152344 37 36.59375 Z M 9 24 L 9 29 C 9 32.507813 11.621094 35.417969 15 35.90625 L 15 39 L 12 39 L 12 41 L 20 41 L 20 39 L 17 39 L 17 35.90625 C 20.378906 35.417969 23 32.507813 23 29 L 23 24 Z M 11 26 L 21 26 L 21 29 C 21 31.753906 18.753906 34 16 34 C 13.246094 34 11 31.753906 11 29 Z"/></svg>