<svg xmlns="http://www.w3.org/2000/svg"  viewBox="0 0 50 50" width="50px" height="50px"><path d="M 10 0 C 8.355469 0 7 1.355469 7 3 L 7 18.6875 C 6.941406 18.882813 6.941406 19.085938 7 19.28125 L 7 44 C 7 45.644531 8.355469 47 10 47 L 10 48 C 10 49.09375 10.90625 50 12 50 L 15 50 C 16.09375 50 17 49.09375 17 48 L 17 47 L 33 47 L 33 48 C 33 49.09375 33.90625 50 35 50 L 38 50 C 39.09375 50 40 49.09375 40 48 L 40 47 C 41.644531 47 43 45.644531 43 44 L 43 19.1875 C 43.027344 19.054688 43.027344 18.914063 43 18.78125 L 43 3 C 43 1.355469 41.644531 0 40 0 Z M 10 2 L 40 2 C 40.5625 2 41 2.4375 41 3 L 41 18 L 9 18 L 9 3 C 9 2.4375 9.4375 2 10 2 Z M 13.90625 5.96875 C 13.863281 5.976563 13.820313 5.988281 13.78125 6 C 13.316406 6.105469 12.988281 6.523438 13 7 L 13 14 C 12.996094 14.359375 13.183594 14.695313 13.496094 14.878906 C 13.808594 15.058594 14.191406 15.058594 14.503906 14.878906 C 14.816406 14.695313 15.003906 14.359375 15 14 L 15 7 C 15.011719 6.710938 14.894531 6.433594 14.6875 6.238281 C 14.476563 6.039063 14.191406 5.941406 13.90625 5.96875 Z M 9 20 L 41 20 L 41 44 C 41 44.5625 40.5625 45 40 45 L 10 45 C 9.4375 45 9 44.5625 9 44 Z M 13.90625 22.96875 C 13.863281 22.976563 13.820313 22.988281 13.78125 23 C 13.316406 23.105469 12.988281 23.523438 13 24 L 13 31 C 12.996094 31.359375 13.183594 31.695313 13.496094 31.878906 C 13.808594 32.058594 14.191406 32.058594 14.503906 31.878906 C 14.816406 31.695313 15.003906 31.359375 15 31 L 15 24 C 15.011719 23.710938 14.894531 23.433594 14.6875 23.238281 C 14.476563 23.039063 14.191406 22.941406 13.90625 22.96875 Z M 12 47 L 15 47 L 15 48 L 12 48 Z M 35 47 L 38 47 L 38 48 L 35 48 Z"/></svg>