<svg width="67" height="67" viewBox="0 0 67 67" fill="none" xmlns="http://www.w3.org/2000/svg">
<circle cx="33.5" cy="33.5" r="33" stroke="#121212"/>
<g clip-path="url(#clip0_345_3)">
<path d="M20.666 20.668V44.668H24.666V43.3346H21.9993V35.3346H25.9993V30.0013H32.666V28.668H25.9993V22.0013H45.9993V28.668H37.9993V30.0013H45.9993V36.668H40.666V38.0013H45.9993V46.0013H32.666V36.668H31.3327V43.3346H28.666V44.668H31.3327V47.3346H47.3327V20.668H20.666ZM24.666 26.0013H21.9993V24.668H24.666V26.0013ZM21.9993 34.0013V32.668H24.666V34.0013H21.9993ZM24.666 31.3346H21.9993V30.0013H24.666V31.3346ZM21.9993 28.668V27.3346H24.666V28.668H21.9993ZM24.666 23.3346H21.9993V22.0013H24.666V23.3346Z" fill="#121212"/>
</g>
<defs>
<clipPath id="clip0_345_3">
<rect width="32" height="32" fill="white" transform="translate(18 18)"/>
</clipPath>
</defs>
</svg>
