<svg xmlns="http://www.w3.org/2000/svg"  viewBox="0 0 50 50" width="50px" height="50px"><path d="M 3 0 C 1.355469 0 0 1.355469 0 3 L 0 47 C 0 48.644531 1.355469 50 3 50 L 47 50 C 48.644531 50 50 48.644531 50 47 L 50 3 C 50 1.355469 48.644531 0 47 0 Z M 3 2 L 47 2 C 47.554688 2 48 2.445313 48 3 L 48 47 C 48 47.554688 47.554688 48 47 48 L 3 48 C 2.445313 48 2 47.554688 2 47 L 2 3 C 2 2.445313 2.445313 2 3 2 Z M 14.9375 9.96875 C 14.894531 9.976563 14.851563 9.988281 14.8125 10 C 14.589844 10.046875 14.394531 10.167969 14.25 10.34375 C 14.25 10.34375 10 15.132813 10 20.3125 C 10 22.945313 11.25 24.445313 12.25 25.59375 C 13.25 26.742188 14 27.527344 14 29.59375 C 14 33.726563 10.25 38.34375 10.25 38.34375 C 9.980469 38.605469 9.878906 39 9.988281 39.359375 C 10.101563 39.71875 10.40625 39.988281 10.777344 40.050781 C 11.152344 40.113281 11.527344 39.960938 11.75 39.65625 C 11.75 39.65625 16 34.859375 16 29.59375 C 16 26.960938 14.75 25.429688 13.75 24.28125 C 12.75 23.132813 12 22.378906 12 20.3125 C 12 16.292969 15.75 11.65625 15.75 11.65625 C 16.039063 11.355469 16.109375 10.90625 15.929688 10.53125 C 15.746094 10.15625 15.351563 9.929688 14.9375 9.96875 Z M 26.9375 9.96875 C 26.894531 9.976563 26.851563 9.988281 26.8125 10 C 26.589844 10.046875 26.394531 10.167969 26.25 10.34375 C 26.25 10.34375 22 15.132813 22 20.3125 C 22 22.945313 23.25 24.445313 24.25 25.59375 C 25.25 26.742188 26 27.527344 26 29.59375 C 26 33.726563 22.25 38.34375 22.25 38.34375 C 21.980469 38.605469 21.878906 39 21.988281 39.359375 C 22.101563 39.71875 22.40625 39.988281 22.777344 40.050781 C 23.152344 40.113281 23.527344 39.960938 23.75 39.65625 C 23.75 39.65625 28 34.859375 28 29.59375 C 28 26.960938 26.75 25.429688 25.75 24.28125 C 24.75 23.132813 24 22.378906 24 20.3125 C 24 16.292969 27.75 11.65625 27.75 11.65625 C 28.039063 11.355469 28.109375 10.90625 27.929688 10.53125 C 27.746094 10.15625 27.351563 9.929688 26.9375 9.96875 Z M 38.9375 9.96875 C 38.894531 9.976563 38.851563 9.988281 38.8125 10 C 38.589844 10.046875 38.394531 10.167969 38.25 10.34375 C 38.25 10.34375 34 15.132813 34 20.3125 C 34 22.945313 35.25 24.445313 36.25 25.59375 C 37.25 26.742188 38 27.527344 38 29.59375 C 38 33.726563 34.25 38.34375 34.25 38.34375 C 33.980469 38.605469 33.878906 39 33.988281 39.359375 C 34.101563 39.71875 34.40625 39.988281 34.777344 40.050781 C 35.152344 40.113281 35.527344 39.960938 35.75 39.65625 C 35.75 39.65625 40 34.859375 40 29.59375 C 40 26.960938 38.75 25.429688 37.75 24.28125 C 36.75 23.132813 36 22.378906 36 20.3125 C 36 16.292969 39.75 11.65625 39.75 11.65625 C 40.039063 11.355469 40.109375 10.90625 39.929688 10.53125 C 39.746094 10.15625 39.351563 9.929688 38.9375 9.96875 Z"/></svg>