<svg xmlns="http://www.w3.org/2000/svg"  viewBox="0 0 50 50" width="50px" height="50px"><path fill="#121212" d="M 14 2 C 11.250484 2 9 4.2504839 9 7 L 9 30.832031 A 1.0001 1.0001 0 0 0 9 31.158203 L 9 37 C 9 40.854334 12.145666 44 16 44 L 16 47 A 1.0001 1.0001 0 0 0 17 48 L 21 48 A 1.0001 1.0001 0 0 0 22 47 L 22 44 L 28 44 L 28 47 A 1.0001 1.0001 0 0 0 29 48 L 33 48 A 1.0001 1.0001 0 0 0 34 47 L 34 44 C 37.854334 44 41 40.854334 41 37 L 41 31.167969 A 1.0001 1.0001 0 0 0 41 30.841797 L 41 7 C 41 4.2504839 38.749516 2 36 2 L 14 2 z M 14 4 L 36 4 C 37.668484 4 39 5.3315161 39 7 L 39 30 L 11 30 L 11 7 C 11 5.3315161 12.331516 4 14 4 z M 16 8 A 1.0001 1.0001 0 0 0 15 9 L 15 25 A 1.0001 1.0001 0 0 0 16 26 L 34 26 A 1.0001 1.0001 0 0 0 35 25 L 35 9 A 1.0001 1.0001 0 0 0 34 8 L 16 8 z M 17 10 L 33 10 L 33 24 L 17 24 L 17 10 z M 26.371094 12 C 26.371094 12 21 14.445859 21 18.630859 C 21 21.239859 24.210938 22 24.210938 22 C 24.210938 22 23.160156 20.587859 23.160156 18.630859 C 23.160156 16.239859 25.320312 14.826172 25.320312 14.826172 C 24.620312 17.652172 25.845703 18.630859 25.845703 18.630859 C 25.845703 18.630859 25.728906 17.759797 26.253906 17.216797 C 26.603906 18.466797 27.480469 19.011344 27.480469 20.152344 C 27.480469 20.967344 26.546875 22 26.546875 22 C 28.006875 21.511 29.056047 20.098859 28.998047 18.630859 C 28.998047 16.075859 27.772266 15.476766 27.947266 14.009766 C 27.538266 14.118766 27.188484 14.499797 26.896484 14.716797 C 26.371484 14.064797 26.196094 13.087 26.371094 12 z M 11 32 L 39 32 L 39 37 C 39 39.773666 36.773666 42 34 42 L 33 42 L 29 42 L 21 42 L 17 42 L 16 42 C 13.226334 42 11 39.773666 11 37 L 11 32 z M 17.5 33 C 15.578848 33 14 34.578848 14 36.5 C 14 38.421152 15.578848 40 17.5 40 C 19.421152 40 21 38.421152 21 36.5 C 21 34.578848 19.421152 33 17.5 33 z M 32.5 33 C 30.578848 33 29 34.578848 29 36.5 C 29 38.421152 30.578848 40 32.5 40 C 34.421152 40 36 38.421152 36 36.5 C 36 34.578848 34.421152 33 32.5 33 z M 17.5 35 C 18.340272 35 19 35.659728 19 36.5 C 19 37.340272 18.340272 38 17.5 38 C 16.659728 38 16 37.340272 16 36.5 C 16 35.659728 16.659728 35 17.5 35 z M 32.5 35 C 33.340272 35 34 35.659728 34 36.5 C 34 37.340272 33.340272 38 32.5 38 C 31.659728 38 31 37.340272 31 36.5 C 31 35.659728 31.659728 35 32.5 35 z M 18 44 L 20 44 L 20 46 L 18 46 L 18 44 z M 30 44 L 32 44 L 32 46 L 30 46 L 30 44 z"/></svg>