<svg xmlns="http://www.w3.org/2000/svg"  viewBox="0 0 50 50" width="50px" height="50px"><path d="M 3 8 C 1.355469 8 0 9.355469 0 11 L 0 39 C 0 40.644531 1.355469 42 3 42 L 5 42 L 5 43 C 5 44.09375 5.90625 45 7 45 L 10 45 C 11.09375 45 12 44.09375 12 43 L 12 42 L 38 42 L 38 43 C 38 44.09375 38.90625 45 40 45 L 43 45 C 44.09375 45 45 44.09375 45 43 L 45 42 L 47 42 C 48.644531 42 50 40.644531 50 39 L 50 11 C 50 9.355469 48.644531 8 47 8 Z M 3 10 L 47 10 C 47.5625 10 48 10.4375 48 11 L 48 39 C 48 39.5625 47.5625 40 47 40 L 39.1875 40 C 39.054688 39.972656 38.914063 39.972656 38.78125 40 L 6.1875 40 C 6.054688 39.972656 5.914063 39.972656 5.78125 40 L 3 40 C 2.4375 40 2 39.5625 2 39 L 2 11 C 2 10.4375 2.4375 10 3 10 Z M 5 13 L 5 37 L 40 37 L 40 13 Z M 7 15 L 38 15 L 38 35 L 7 35 Z M 44 16 C 42.894531 16 42 16.894531 42 18 C 42 19.105469 42.894531 20 44 20 C 45.105469 20 46 19.105469 46 18 C 46 16.894531 45.105469 16 44 16 Z M 34.15625 19.9375 C 33.957031 19.933594 33.761719 19.988281 33.59375 20.09375 C 33.59375 20.09375 28.964844 22 26.125 22 C 24.707031 22 23.75 21.59375 22.59375 21.09375 C 21.4375 20.59375 20.066406 20 18.21875 20 C 14.523438 20 10.5625 22.09375 10.5625 22.09375 C 10.0625 22.335938 9.851563 22.9375 10.09375 23.4375 C 10.335938 23.9375 10.9375 24.148438 11.4375 23.90625 C 11.4375 23.90625 15.332031 22 18.21875 22 C 19.664063 22 20.628906 22.40625 21.78125 22.90625 C 22.933594 23.40625 24.296875 24 26.125 24 C 29.785156 24 34.40625 21.90625 34.40625 21.90625 C 34.894531 21.78125 35.214844 21.3125 35.148438 20.8125 C 35.085938 20.3125 34.660156 19.9375 34.15625 19.9375 Z M 44 23 C 42.894531 23 42 23.894531 42 25 C 42 26.105469 42.894531 27 44 27 C 45.105469 27 46 26.105469 46 25 C 46 23.894531 45.105469 23 44 23 Z M 34.15625 25.9375 C 33.957031 25.933594 33.761719 25.988281 33.59375 26.09375 C 33.59375 26.09375 28.964844 28 26.125 28 C 24.707031 28 23.75 27.59375 22.59375 27.09375 C 21.4375 26.59375 20.066406 26 18.21875 26 C 14.523438 26 10.5625 28.09375 10.5625 28.09375 C 10.0625 28.335938 9.851563 28.9375 10.09375 29.4375 C 10.335938 29.9375 10.9375 30.148438 11.4375 29.90625 C 11.4375 29.90625 15.332031 28 18.21875 28 C 19.664063 28 20.628906 28.40625 21.78125 28.90625 C 22.933594 29.40625 24.296875 30 26.125 30 C 29.785156 30 34.40625 27.90625 34.40625 27.90625 C 34.894531 27.78125 35.214844 27.3125 35.148438 26.8125 C 35.085938 26.3125 34.660156 25.9375 34.15625 25.9375 Z M 44 30 C 42.894531 30 42 30.894531 42 32 C 42 33.105469 42.894531 34 44 34 C 45.105469 34 46 33.105469 46 32 C 46 30.894531 45.105469 30 44 30 Z M 7 42 L 10 42 L 10 43 L 7 43 Z M 40 42 L 43 42 L 43 43 L 40 43 Z"/></svg>