<svg xmlns="http://www.w3.org/2000/svg"  viewBox="0 0 50 50" width="50px" height="50px"><path fill="#121212" d="M 9.9902344 1.9902344 A 1.0001 1.0001 0 0 0 9.2929688 3.7070312 C 10.201988 4.6160503 10.761893 5.5501508 10.919922 6.3066406 C 11.077951 7.0631304 10.952362 7.6335713 10.292969 8.2929688 C 9.2243658 9.3615714 8.8490757 10.790052 9.1230469 12.101562 C 9.3970181 13.413073 10.201988 14.61605 11.292969 15.707031 A 1.0001 1.0001 0 1 0 12.707031 14.292969 C 11.798012 13.38395 11.238107 12.449849 11.080078 11.693359 C 10.922049 10.93687 11.047634 10.366429 11.707031 9.7070312 C 12.775634 8.6384286 13.150924 7.2099477 12.876953 5.8984375 C 12.602982 4.5869273 11.798012 3.3839497 10.707031 2.2929688 A 1.0001 1.0001 0 0 0 9.9902344 1.9902344 z M 16.990234 1.9902344 A 1.0001 1.0001 0 0 0 16.292969 3.7070312 C 17.201988 4.6160502 17.761893 5.5501508 17.919922 6.3066406 C 18.077951 7.0631304 17.952362 7.6335713 17.292969 8.2929688 C 16.224366 9.3615714 15.849076 10.790052 16.123047 12.101562 C 16.397018 13.413073 17.201988 14.61605 18.292969 15.707031 A 1.0001 1.0001 0 1 0 19.707031 14.292969 C 18.798012 13.38395 18.238107 12.449849 18.080078 11.693359 C 17.922049 10.93687 18.047634 10.366429 18.707031 9.7070312 C 19.775634 8.6384286 20.150924 7.2099477 19.876953 5.8984375 C 19.602982 4.5869273 18.798012 3.3839497 17.707031 2.2929688 A 1.0001 1.0001 0 0 0 16.990234 1.9902344 z M 23.990234 1.9902344 A 1.0001 1.0001 0 0 0 23.292969 3.7070312 C 24.201988 4.6160502 24.761893 5.5501508 24.919922 6.3066406 C 25.077951 7.0631304 24.952362 7.6335713 24.292969 8.2929688 C 23.224366 9.3615714 22.849076 10.790052 23.123047 12.101562 C 23.397018 13.413073 24.201988 14.61605 25.292969 15.707031 A 1.0001 1.0001 0 1 0 26.707031 14.292969 C 25.798012 13.38395 25.238107 12.449849 25.080078 11.693359 C 24.922049 10.93687 25.047634 10.366429 25.707031 9.7070312 C 26.775634 8.6384286 27.150924 7.2099477 26.876953 5.8984375 C 26.602982 4.5869273 25.798012 3.3839497 24.707031 2.2929688 A 1.0001 1.0001 0 0 0 23.990234 1.9902344 z M 30.990234 1.9902344 A 1.0001 1.0001 0 0 0 30.292969 3.7070312 C 31.201988 4.6160502 31.761893 5.5501508 31.919922 6.3066406 C 32.077951 7.0631304 31.952362 7.6335713 31.292969 8.2929688 C 30.224366 9.3615714 29.849076 10.790052 30.123047 12.101562 C 30.397018 13.413073 31.201988 14.61605 32.292969 15.707031 A 1.0001 1.0001 0 1 0 33.707031 14.292969 C 32.798012 13.38395 32.238107 12.449849 32.080078 11.693359 C 31.922049 10.93687 32.047634 10.366429 32.707031 9.7070312 C 33.775634 8.6384286 34.150924 7.2099477 33.876953 5.8984375 C 33.602982 4.5869273 32.798012 3.3839497 31.707031 2.2929688 A 1.0001 1.0001 0 0 0 30.990234 1.9902344 z M 37.990234 1.9902344 A 1.0001 1.0001 0 0 0 37.292969 3.7070312 C 38.201988 4.6160502 38.761893 5.5501508 38.919922 6.3066406 C 39.077951 7.0631304 38.952362 7.6335713 38.292969 8.2929688 C 37.224366 9.3615714 36.849076 10.790052 37.123047 12.101562 C 37.397018 13.413073 38.201988 14.61605 39.292969 15.707031 A 1.0001 1.0001 0 1 0 40.707031 14.292969 C 39.798012 13.38395 39.238107 12.449849 39.080078 11.693359 C 38.922049 10.93687 39.047634 10.366429 39.707031 9.7070312 C 40.775634 8.6384286 41.150924 7.2099477 40.876953 5.8984375 C 40.602982 4.5869273 39.798012 3.3839497 38.707031 2.2929688 A 1.0001 1.0001 0 0 0 37.990234 1.9902344 z M 13 19.015625 C 12.246 19.015625 11.492 19.344 11 20 L 9.5996094 21.867188 C 9.3455195 22.205322 9.1768438 22.592913 9.0839844 23 L 8 23 C 7.448 23 7 23.448 7 24 L 7 27 C 7 27.552 7.448 28 8 28 L 9 28 L 9 39 L 8 39 C 7.448 39 7 39.448 7 40 L 7 43 C 7 43.552 7.448 44 8 44 L 9.0839844 44 C 9.1767282 44.407768 9.3451345 44.796118 9.5996094 45.134766 L 11 47 A 1.0001 1.0001 0 0 0 11 47.001953 C 11.984 48.313953 14.016 48.313953 15 47.001953 A 1.0001 1.0001 0 0 0 15 47 L 16 45.667969 L 17 47 A 1.0001 1.0001 0 0 0 17 47.001953 C 17.984 48.313953 20.016 48.313953 21 47.001953 A 1.0001 1.0001 0 0 0 21 47 L 22 45.667969 L 23 47 A 1.0001 1.0001 0 0 0 23 47.001953 C 23.984 48.313953 26.016 48.313953 27 47.001953 A 1.0001 1.0001 0 0 0 27 47 L 28 45.667969 L 29 47 A 1.0001 1.0001 0 0 0 29 47.001953 C 29.984 48.313953 32.016 48.313953 33 47.001953 A 1.0001 1.0001 0 0 0 33 47 L 34 45.667969 L 35 47 A 1.0001 1.0001 0 0 0 35 47.001953 C 35.984 48.313953 38.016 48.313953 39 47.001953 A 1.0001 1.0001 0 0 0 39 47 L 40.400391 45.134766 C 40.654865 44.796118 40.823272 44.407768 40.916016 44 L 42 44 C 42.552 44 43 43.552 43 43 L 43 40 C 43 39.448 42.552 39 42 39 L 41 39 L 41 28 L 42 28 C 42.552 28 43 27.552 43 27 L 43 24 C 43 23.448 42.552 23 42 23 L 40.916016 23 C 40.823156 22.592913 40.65448 22.205322 40.400391 21.867188 L 39 20 C 38.016 18.688 35.984 18.688 35 20 L 34 21.333984 L 33 20 C 32.016 18.688 29.984 18.688 29 20 L 28 21.333984 L 27 20 C 26.016 18.688 23.984 18.688 23 20 L 22 21.333984 L 21 20 C 20.016 18.688 17.984 18.688 17 20 L 16 21.333984 L 15 20 C 14.508 19.344 13.754 19.015625 13 19.015625 z M 13 20.982422 C 13.146196 20.982422 13.292391 21.055219 13.400391 21.199219 L 14.800781 23.066406 A 1.0001 1.0001 0 0 0 14.800781 23.068359 C 14.930317 23.240694 15 23.450519 15 23.667969 L 15 43.333984 C 15 43.551434 14.93032 43.761212 14.800781 43.933594 L 13.400391 45.800781 C 13.184391 46.088781 12.815609 46.088781 12.599609 45.800781 L 11.199219 43.933594 C 11.069683 43.761212 11 43.551434 11 43.333984 L 11 23.667969 C 11 23.450519 11.06968 23.240741 11.199219 23.068359 A 1.0001 1.0001 0 0 0 11.199219 23.066406 L 12.599609 21.199219 C 12.707609 21.055219 12.853804 20.982422 13 20.982422 z M 19 20.982422 C 19.146196 20.982422 19.292391 21.055219 19.400391 21.199219 L 20.800781 23.066406 A 1.0001 1.0001 0 0 0 20.800781 23.068359 C 20.930317 23.240694 21 23.450519 21 23.667969 L 21 43.333984 C 21 43.551434 20.93032 43.761212 20.800781 43.933594 L 19.400391 45.800781 C 19.184391 46.088781 18.815609 46.088781 18.599609 45.800781 L 17.199219 43.933594 C 17.069683 43.761212 17 43.551434 17 43.333984 L 17 23.667969 C 17 23.450519 17.06968 23.240741 17.199219 23.068359 A 1.0001 1.0001 0 0 0 17.199219 23.066406 L 18.599609 21.199219 C 18.707609 21.055219 18.853804 20.982422 19 20.982422 z M 25 20.982422 C 25.146196 20.982422 25.292391 21.055219 25.400391 21.199219 L 26.800781 23.066406 A 1.0001 1.0001 0 0 0 26.800781 23.068359 C 26.930317 23.240694 27 23.450519 27 23.667969 L 27 43.333984 C 27 43.551434 26.93032 43.761212 26.800781 43.933594 L 25.400391 45.800781 C 25.184391 46.088781 24.815609 46.088781 24.599609 45.800781 L 23.199219 43.933594 C 23.069683 43.761212 23 43.551434 23 43.333984 L 23 23.667969 C 23 23.450519 23.06968 23.240741 23.199219 23.068359 A 1.0001 1.0001 0 0 0 23.199219 23.066406 L 24.599609 21.199219 C 24.707609 21.055219 24.853804 20.982422 25 20.982422 z M 31 20.982422 C 31.146196 20.982422 31.292391 21.055219 31.400391 21.199219 L 32.800781 23.066406 A 1.0001 1.0001 0 0 0 32.800781 23.068359 C 32.930317 23.240694 33 23.450519 33 23.667969 L 33 43.333984 C 33 43.551434 32.93032 43.761212 32.800781 43.933594 L 31.400391 45.800781 C 31.184391 46.088781 30.815609 46.088781 30.599609 45.800781 L 29.199219 43.933594 C 29.069683 43.761212 29 43.551434 29 43.333984 L 29 23.667969 C 29 23.450519 29.06968 23.240741 29.199219 23.068359 A 1.0001 1.0001 0 0 0 29.199219 23.066406 L 30.599609 21.199219 C 30.707609 21.055219 30.853804 20.982422 31 20.982422 z M 37 20.982422 C 37.146195 20.982422 37.292391 21.055219 37.400391 21.199219 L 38.800781 23.066406 A 1.0001 1.0001 0 0 0 38.800781 23.068359 C 38.930317 23.240694 39 23.450519 39 23.667969 L 39 43.333984 C 39 43.551434 38.93032 43.761212 38.800781 43.933594 L 37.400391 45.800781 C 37.184391 46.088781 36.815609 46.088781 36.599609 45.800781 L 35.199219 43.933594 C 35.069683 43.761212 35 43.551434 35 43.333984 L 35 23.667969 C 35 23.450519 35.06968 23.240741 35.199219 23.068359 A 1.0001 1.0001 0 0 0 35.199219 23.066406 L 36.599609 21.199219 C 36.707609 21.055219 36.853805 20.982422 37 20.982422 z"/></svg>