<svg width="67" height="67" viewBox="0 0 67 67" fill="none" xmlns="http://www.w3.org/2000/svg">
<circle cx="33.5" cy="33.5" r="33" stroke="#121212"/>
<g clip-path="url(#clip0_345_5)">
<path d="M50.0706 18L35.0227 20.6658L19.9297 18.0034V49.9814L34.9851 46.599L50.0706 50V18ZM33.3171 45.2561L21.6282 47.8376V20.0439L33.3172 22.0353L33.3171 45.2561ZM48.1456 47.6147L35.3933 45.0245V42.934H35.6664V39.7965H35.3933V28.1504H35.6664V25.013H35.3933V22.2791L48.1456 20.2793V47.6147Z" fill="#121212"/>
<path d="M23.106 34.7863C23.5841 34.7863 23.9717 34.306 23.9717 33.7135C23.9717 33.1209 23.5841 32.6406 23.106 32.6406C22.6278 32.6406 22.2402 33.1209 22.2402 33.7135C22.2402 34.306 22.6278 34.7863 23.106 34.7863Z" fill="#121212"/>
</g>
<defs>
<clipPath id="clip0_345_5">
<rect width="32" height="32" fill="white" transform="translate(19 18)"/>
</clipPath>
</defs>
</svg>
