<svg id="Layer_2" data-name="Layer 2" xmlns="http://www.w3.org/2000/svg" viewBox="0 0 400 300" data-imageid="snow-isometric" imageName="Snow" class="illustrations_image" style="width: 195px;"><title>ZZZ</title><path d="M378,168.93l-14,9.45L199.51,82.95c-2.54-1.47-6.33-.46-8.82,1.09L24.32,179.91c-5.15,3.19-.62,8.05,4.66,11l165.77,98a22,22,0,0,0,21.85-.16l157.86-90.12a7.19,7.19,0,0,0,3.48-5.85l0,0Z" fill="#68e1fd" class="target-color"/><path d="M378,168.93l-14,9.45L199.51,82.95c-2.54-1.47-6.33-.46-8.82,1.09L24.32,179.91c-5.15,3.19-.62,8.05,4.66,11l165.77,98a22,22,0,0,0,21.85-.16l157.86-90.12a7.19,7.19,0,0,0,3.48-5.85l0,0Z" fill="#606060" opacity="0.32"/><polygon points="22.05 161.06 22.05 183.28 52.64 175.06 22.05 161.06" fill="#efdbd3"/><path d="M161.69,247.14V269.5L29,190.93S23,188,22.05,183.28s23.38-7.43,23.38-7.43Z" fill="#efdbd3"/><path d="M194.74,266.68,29,168.71c-5.28-3-9.8-7.83-4.66-11L190.68,61.81c2.5-1.55,6.29-2.56,8.82-1.09l174,101c5.28,3.06,6.22,11.63.94,14.69L216.59,266.52A22,22,0,0,1,194.74,266.68Z" fill="#68e1fd" class="target-color"/><path d="M194.74,266.68,29,168.71c-5.28-3-9.8-7.83-4.66-11L190.68,61.81c2.5-1.55,6.29-2.56,8.82-1.09l174,101c5.28,3.06,6.22,11.63.94,14.69L216.59,266.52A22,22,0,0,1,194.74,266.68Z" fill="#68e1fd" class="target-color"/><path d="M211.28,227.22c6.9-6.77,12.13-14.78,18.59-21.89a57.51,57.51,0,0,1,21-14.59c14-5.74,34.48-8,41.06-23.66,5.29-12.62,2-27.54,2.84-40.79a54.9,54.9,0,0,1,1.44-9.46L199.51,60.71c-2.54-1.47-6.33-.46-8.82,1.09L24.32,157.68c-5.15,3.19-.62,8.05,4.66,11l132.72,78.44C180.51,247.75,197.46,240.79,211.28,227.22Z" fill="#fdf5f1"/><path d="M163.35,92.4s-9.46,5.8-5.76,10.71,14.34.86,19.53,4.9,10.44,2,18.92,0,6.47-.73,19-3,26.61-7.74,26.27-14-21.92-11.81-27.85-11.81" fill="#efd3c7"/><path d="M223,89.88a127.61,127.61,0,0,1-14.14-20.36c-1.75-3.12-6.33-.75-5.48,2.31a3.28,3.28,0,0,0-1.8.86,3.2,3.2,0,0,0-3.67-.54,3.17,3.17,0,0,0-4.57-2.45,3.2,3.2,0,0,0-1.41-.35,3.18,3.18,0,0,0-4.23-.71c-1.6-1-3.92-.72-4.31,1.62l-.08.49c.25-3-4.16-4.26-5.6-1.67l-.16-.08c-1-1.8-3.91-2.56-5.25-.23a161.24,161.24,0,0,1-14,20.57c-2.39,3,1.82,7.26,4.24,4.24,1.18-1.47,2.32-3,3.44-4.45l-2.74,6.22c-1.54,3.5,3.63,6.56,5.18,3l4.42-10c-.91,3.68-2.11,7.89-1.45,11.37a3,3,0,0,0,2.89,2.2l.34,0a4.29,4.29,0,0,0,1.36-.38c1.33,1.53,4.31,1.61,5.18-.8a3.28,3.28,0,0,0,4.52-2.63c.07-.72.16-1.45.24-2.17,0,2.08,0,4.15,0,6.23,0,3.55,5.08,3.83,5.88.85a2.89,2.89,0,0,0,2-1.08,4.45,4.45,0,0,0,1.1,1.61c1.1,1,3.19,1.33,4.24,0l.21-.27.07-.11a3.3,3.3,0,0,0,4.71-3.39L204,98.41l.4,1.23c1.19,3.66,7,2.09,5.79-1.6l-.11-.34c1.91.17,4-1.31,3.21-3.66l0,0c.7,1.07,1.4,2.15,2.13,3.21,2,2.86,6.39.68,5.6-2.12A3.22,3.22,0,0,0,223,89.88Z" fill="#185543"/><path d="M222.87,68.43a40,40,0,0,1-20.7-10.66,3,3,0,0,0-5,1.44,2.77,2.77,0,0,0-3.72.49,3.37,3.37,0,0,0-3.13.73,3.23,3.23,0,0,0-4.53,1.68,3.09,3.09,0,0,0-1.4.31,3.37,3.37,0,0,0-.69-.56c.71-2.72-2.74-5.58-4.88-3a40.62,40.62,0,0,1-17,12.24c-3.58,1.34-2,7.14,1.6,5.79a48.59,48.59,0,0,0,10.33-5.33q-2,3.1-3.62,6.4c-1.72,3.44,3.45,6.48,5.18,3a73.6,73.6,0,0,1,5.15-8.74l-2,6.49c-1.15,3.69,4.64,5.28,5.79,1.6l1.45-4.64c.11,1.69.25,3.38.45,5.07.44,3.79,6.44,3.84,6,0-.23-2-.38-4-.49-6,.52,2,1.08,4,1.72,6,1.18,3.66,7,2.1,5.79-1.6-.67-2.08-1.25-4.18-1.8-6.29q2.31,4.55,4.86,9c1.84,3.19,6.64.59,5.38-2.58a3.14,3.14,0,0,0,2.15-4.33,55.16,55.16,0,0,1,3.77,4.33c1,1.29,3.19,1,4.24,0a3.07,3.07,0,0,0,0-4.24c-.57-.73-1.15-1.43-1.75-2.12a45.4,45.4,0,0,0,5.34,1.36C225.05,74.93,226.67,69.15,222.87,68.43Z" fill="#4a8e7b"/><path d="M209.52,58.09c-8.54-2.6-12.73-14.28-15.8-21.77a3.34,3.34,0,0,0-5.47-1A2.34,2.34,0,0,0,186,36.95a3,3,0,0,0-1.13,2.16c-.1,1.21-.25,2.41-.38,3.61a27.42,27.42,0,0,1-14.44,15.65c-3.5,1.63-.45,6.81,3,5.18a32.85,32.85,0,0,0,9.11-6.34c-.25,1.22-.5,2.45-.79,3.67-.79,3.41,3.88,5,5.41,2.49,1,2.53,5.59,2.1,5.84-1.26.1-1.31.17-2.63.25-3.94.57,1.75,1.15,3.5,1.76,5.24,1.27,3.62,7.06,2.06,5.79-1.6-.39-1.12-.76-2.24-1.13-3.36a20.1,20.1,0,0,0,8.6,5.42C211.62,65,213.21,59.21,209.52,58.09Z" fill="#185543"/><path d="M206.45,49.25a33.7,33.7,0,0,1-13.68-19.88,2.73,2.73,0,0,0-3.37-2.06,3.41,3.41,0,0,0-3.9,2.9,3.29,3.29,0,0,0-.17.77c-.69,7.53-5.88,13.47-10.67,18.9-2.54,2.89,1.68,7.15,4.24,4.24a90.34,90.34,0,0,0,6.35-7.87l-.74,6.13c-.4,3.29,4,3.72,5.5,1.37,1.07,3.57,6.71,2,5.74-1.71-.54-2.06-1-4.12-1.49-6.19a41.31,41.31,0,0,0,9.16,8.56C206.62,56.62,209.62,51.42,206.45,49.25Z" fill="#4a8e7b"/><path d="M200.34,48.09c-4.4-3.1-6.17-8.51-7.78-13.4a2.62,2.62,0,0,0-4.38-.92,2.31,2.31,0,0,0-2.91,1.68,25.42,25.42,0,0,1-7.38,12.16c-2.36,2.19,1.18,5.72,3.54,3.54a30.31,30.31,0,0,0,3.89-4.4l-.38,4.36c-.28,3.2,4.72,3.19,5,0l0-.48c1.06,2.27,4.65,1.41,4.74-1a19.36,19.36,0,0,0,3.1,2.73C200.46,54.27,203,49.93,200.34,48.09Z" fill="#fdf5f1"/><path d="M220.58,72.13a190.8,190.8,0,0,1-15.37-11.47l-2.59-2.85a2.14,2.14,0,0,0-2.24-.71c-1.26-1.74-3.87-.63-4.29,1.24a2.72,2.72,0,0,0-1.89-.26c-.79-2.18-4.21-2.24-4.76-.11a2.68,2.68,0,0,0-3.83,1.29,2.54,2.54,0,0,0-2.33,1.2c-.42-2.11-3.46-3.35-4.5-1-2.19,5.06-4.68,11-10.55,12.46-3.12.79-1.8,5.61,1.33,4.82,4.45-1.13,7.5-4,9.82-7.58a72.79,72.79,0,0,1-5,8.13c-1.86,2.64,2.48,5.14,4.32,2.52a73.48,73.48,0,0,0,6.18-10.57L184.48,77c-.18,3.21,4.82,3.2,5,0l.62-10.83c.48,4,1.07,8,1.82,11.91.6,3.16,5.42,1.82,4.82-1.33-.48-2.57-.89-5.14-1.26-7.72q1.63,3.62,3.6,7.09c.85,1.48,3.56,1.78,4.32,0l.45-1.07a2.61,2.61,0,0,0,.18-1.44c.43.66.84,1.33,1.28,2,1.78,2.66,6.12.16,4.32-2.52l-.18-.28,2.32,2.55a2.32,2.32,0,0,0,3.83-.56c.82.57,1.63,1.14,2.46,1.7C220.74,78.25,223.24,73.92,220.58,72.13Zm-18.38-.78c-.68-1.28-1.3-2.57-1.91-3.88q1.22,2.13,2.51,4.21A2.9,2.9,0,0,0,202.2,71.36Z" fill="#fdf5f1"/><path d="M167.28,82.25a46.08,46.08,0,0,0-3.93,10.15c-.79,3.12,4,4.45,4.82,1.33a40.35,40.35,0,0,1,3.43-9C173.1,81.93,168.78,79.4,167.28,82.25Z" fill="#fdf5f1"/><path d="M218.71,91.09,214,81.7c-1.43-2.88-5.75-.35-4.32,2.52L211.61,88a2.76,2.76,0,0,0-1.46.7l-.18-.26a18.25,18.25,0,0,1-2.35-4.83A2.54,2.54,0,0,0,204,82.17c-.89-1.18-2.8-.93-3.79.22a2.54,2.54,0,0,0-2.83.88,2.88,2.88,0,0,0-2-.07c-.73-2.45-4.54-1.45-4.74,1.12a2.29,2.29,0,0,0-2.65,1.3,2.72,2.72,0,0,0-.82-.59c-.3-2.56-4.17-2.62-4.87-.21-.61-2-3.81-2.56-4.67-.31-.47-1.94-3.36-3-4.54-.78a67.47,67.47,0,0,0-4.61,11c-.87,2.74,3.13,4.32,4.57,1.93L176.42,91a41.66,41.66,0,0,0-.12,7c.15,2.27,3.48,3.66,4.66,1.26A41.84,41.84,0,0,0,182.76,95c.13.85.28,1.7.45,2.54.5,2.41,4.28,2.36,4.82,0a33.31,33.31,0,0,0,.7-4.35c.27,1.57.58,3.14.94,4.7a2.52,2.52,0,0,0,3.67,1.49,6.36,6.36,0,0,0,2.4-3.4c.37,1.29.78,2.58,1.26,3.85.77,2.06,4.35,2.67,4.82,0a43.29,43.29,0,0,0,.62-6.28,34.29,34.29,0,0,0,1.81,3.29,2.55,2.55,0,0,0,3.42.9A4.62,4.62,0,0,0,209.42,96a2.68,2.68,0,0,0,.27-.56l.21.19c1.45,1.18,3.42,1.74,4.78,0a3,3,0,0,0,.56-1.13A2.61,2.61,0,0,0,218.71,91.09Z" fill="#fdf5f1"/><path d="M73.94,163.46s-7.84,4.81-4.77,8.87,11.88.72,16.18,4.06,8.65,1.67,15.68,0,5.36-.6,15.74-2.48,22-6.41,21.76-11.6-18.16-9.79-23.07-9.78" fill="#efd3c7"/><path d="M123.36,161.37a105.73,105.73,0,0,1-11.72-16.87c-1.45-2.59-5.25-.62-4.54,1.91a2.72,2.72,0,0,0-1.49.71,2.65,2.65,0,0,0-3-.45,2.63,2.63,0,0,0-3.79-2,2.65,2.65,0,0,0-1.17-.29,2.63,2.63,0,0,0-3.5-.59c-1.32-.83-3.25-.6-3.57,1.34l-.06.4c.21-2.49-3.45-3.53-4.64-1.38l-.13-.07a2.49,2.49,0,0,0-4.35-.19,133.59,133.59,0,0,1-11.6,17c-2,2.47,1.51,6,3.52,3.52,1-1.21,1.92-2.45,2.85-3.69l-2.27,5.16c-1.28,2.9,3,5.43,4.29,2.51l3.66-8.31c-.76,3.05-1.75,6.54-1.2,9.42a2.48,2.48,0,0,0,2.4,1.82l.28,0a3.55,3.55,0,0,0,1.12-.31,2.53,2.53,0,0,0,4.29-.66,2.72,2.72,0,0,0,3.74-2.18c.06-.6.13-1.2.2-1.8,0,1.72,0,3.44,0,5.16,0,2.94,4.21,3.18,4.87.7a2.4,2.4,0,0,0,1.69-.9,3.69,3.69,0,0,0,.91,1.33c.91.81,2.64,1.1,3.52,0l.17-.22.06-.09a2.73,2.73,0,0,0,3.9-2.81l-.16-1.1.33,1c1,3,5.79,1.73,4.79-1.32l-.09-.28c1.58.14,3.29-1.09,2.66-3v0c.58.89,1.16,1.78,1.76,2.66,1.63,2.37,5.29.56,4.64-1.76A2.66,2.66,0,0,0,123.36,161.37Z" fill="#185543"/><path d="M123.26,143.6a33.1,33.1,0,0,1-17.15-8.83,2.52,2.52,0,0,0-4.16,1.2,2.29,2.29,0,0,0-3.08.41,2.79,2.79,0,0,0-2.59.6,2.68,2.68,0,0,0-3.75,1.39,2.56,2.56,0,0,0-1.16.25,2.79,2.79,0,0,0-.58-.46c.59-2.26-2.27-4.62-4-2.49A33.65,33.65,0,0,1,72.63,145.8c-3,1.11-1.68,5.92,1.32,4.79a40.26,40.26,0,0,0,8.56-4.42q-1.62,2.57-3,5.3c-1.43,2.85,2.86,5.37,4.29,2.51a61,61,0,0,1,4.27-7.24l-1.67,5.37c-1,3.06,3.84,4.37,4.79,1.32l1.2-3.84c.09,1.4.21,2.8.37,4.2.36,3.14,5.34,3.18,5,0-.19-1.67-.32-3.33-.41-5,.43,1.66.9,3.32,1.42,5,1,3,5.78,1.74,4.79-1.32-.55-1.73-1-3.46-1.49-5.21q1.91,3.77,4,7.44c1.52,2.65,5.5.48,4.46-2.13a2.6,2.6,0,0,0,1.78-3.59,45.7,45.7,0,0,1,3.13,3.59,2.5,2.5,0,0,0,3.52,0,2.55,2.55,0,0,0,0-3.52c-.47-.6-1-1.19-1.45-1.76a37.62,37.62,0,0,0,4.42,1.13C125.06,149,126.4,144.2,123.26,143.6Z" fill="#4a8e7b"/><path d="M112.19,135c-7.08-2.15-10.54-11.83-13.09-18a2.77,2.77,0,0,0-4.53-.8,1.93,1.93,0,0,0-1.86,1.31,2.49,2.49,0,0,0-.94,1.79c-.09,1-.2,2-.31,3a22.72,22.72,0,0,1-12,13c-2.9,1.35-.38,5.64,2.51,4.29a27.22,27.22,0,0,0,7.55-5.25c-.21,1-.42,2-.65,3-.65,2.82,3.22,4.17,4.48,2.07.79,2.1,4.63,1.74,4.84-1,.08-1.09.14-2.18.21-3.27.47,1.45,1,2.9,1.46,4.34,1,3,5.85,1.71,4.79-1.32-.32-.93-.63-1.86-.94-2.79a16.66,16.66,0,0,0,7.12,4.49C113.94,140.76,115.25,136,112.19,135Z" fill="#185543"/><path d="M109.66,127.71a27.92,27.92,0,0,1-11.34-16.47,2.26,2.26,0,0,0-2.79-1.7,2.83,2.83,0,0,0-3.23,2.41,2.73,2.73,0,0,0-.14.64c-.57,6.24-4.88,11.16-8.84,15.66-2.11,2.39,1.4,5.92,3.52,3.52a74.85,74.85,0,0,0,5.26-6.52l-.61,5.08c-.33,2.72,3.29,3.08,4.56,1.14.88,3,5.56,1.65,4.76-1.42-.44-1.7-.85-3.41-1.23-5.13a34.22,34.22,0,0,0,7.59,7.09C109.79,133.82,112.28,129.51,109.66,127.71Z" fill="#4a8e7b"/><path d="M104.59,126.75c-3.64-2.57-5.11-7.05-6.45-11.1a2.17,2.17,0,0,0-3.63-.76,1.92,1.92,0,0,0-2.41,1.39A21.06,21.06,0,0,1,86,126.35c-2,1.82,1,4.74,2.93,2.93a25.11,25.11,0,0,0,3.22-3.65l-.32,3.62c-.23,2.66,3.91,2.64,4.14,0l0-.4a2.1,2.1,0,0,0,3.93-.79,16,16,0,0,0,2.56,2.26C104.69,131.87,106.76,128.28,104.59,126.75Z" fill="#fdf5f1"/><path d="M121.36,146.67a158.08,158.08,0,0,1-12.73-9.5l-2.15-2.36a1.77,1.77,0,0,0-1.86-.59c-1-1.44-3.2-.52-3.56,1A2.25,2.25,0,0,0,99.5,135c-.66-1.81-3.49-1.85-3.94-.09A2.22,2.22,0,0,0,92.38,136a2.11,2.11,0,0,0-1.93,1c-.35-1.75-2.87-2.77-3.73-.79-1.81,4.19-3.88,9.09-8.74,10.32-2.58.66-1.49,4.65,1.1,4a13.74,13.74,0,0,0,8.14-6.28A60.31,60.31,0,0,1,83.11,151c-1.54,2.18,2.05,4.26,3.58,2.09a60.88,60.88,0,0,0,5.12-8.76l-.36,6.37c-.15,2.66,4,2.65,4.14,0l.51-9c.39,3.3.89,6.59,1.51,9.87.49,2.62,4.49,1.51,4-1.1-.4-2.13-.74-4.26-1-6.39q1.35,3,3,5.88c.7,1.23,3,1.47,3.58,0l.38-.88a2.16,2.16,0,0,0,.15-1.2c.35.55.7,1.1,1.06,1.64,1.48,2.2,5.07.13,3.58-2.09l-.15-.23,1.92,2.12a1.92,1.92,0,0,0,3.17-.47c.68.47,1.35.95,2,1.41C121.49,151.74,123.56,148.15,121.36,146.67ZM106.13,146c-.56-1.06-1.08-2.13-1.58-3.22q1,1.76,2.08,3.49A2.4,2.4,0,0,0,106.13,146Z" fill="#fdf5f1"/><path d="M77.2,155.05a38.18,38.18,0,0,0-3.26,8.41c-.66,2.58,3.34,3.69,4,1.1a33.43,33.43,0,0,1,2.84-7.42C82,154.79,78.44,152.69,77.2,155.05Z" fill="#fdf5f1"/><path d="M119.81,162.37l-3.87-7.78c-1.19-2.39-4.76-.29-3.58,2.09l1.55,3.13a2.28,2.28,0,0,0-1.21.58l-.15-.22a15.12,15.12,0,0,1-1.94-4,2.1,2.1,0,0,0-3-1.19,2.07,2.07,0,0,0-3.14.18,2.1,2.1,0,0,0-2.35.73,2.39,2.39,0,0,0-1.64-.06c-.6-2-3.76-1.2-3.93.93a1.9,1.9,0,0,0-2.19,1.08,2.26,2.26,0,0,0-.68-.49c-.25-2.12-3.46-2.17-4-.18-.5-1.65-3.16-2.12-3.87-.26-.39-1.61-2.79-2.5-3.76-.65a55.9,55.9,0,0,0-3.82,9.13c-.72,2.27,2.59,3.58,3.79,1.6l2.81-4.67a34.52,34.52,0,0,0-.1,5.79c.13,1.88,2.89,3,3.86,1A34.67,34.67,0,0,0,90,165.61c.11.7.23,1.4.37,2.11.41,2,3.55,2,4,0a27.6,27.6,0,0,0,.58-3.6c.22,1.3.48,2.6.78,3.9a2.08,2.08,0,0,0,3,1.24,5.27,5.27,0,0,0,2-2.82c.3,1.07.65,2.14,1,3.19.64,1.71,3.61,2.22,4,0a35.87,35.87,0,0,0,.52-5.2,28.41,28.41,0,0,0,1.5,2.73,2.11,2.11,0,0,0,2.83.74,3.83,3.83,0,0,0,1.45-1.42,2.22,2.22,0,0,0,.22-.46l.18.16c1.2,1,2.83,1.44,4,0a2.46,2.46,0,0,0,.47-.94A2.16,2.16,0,0,0,119.81,162.37Z" fill="#fdf5f1"/><path d="M206.06,192.8s40.7-14.85,27.62-34.51-45.52-7-55.47,7.75" fill="#efd3c7"/><circle cx="194.47" cy="163.78" r="31.25" fill="#fff"/><path d="M203,133.77c8.64,9,13.53,22.29,11,34.25-3.6,17.32-19.16,25.35-34.15,23.48A31.25,31.25,0,1,0,203,133.77Z" fill="#eae8e5"/><circle cx="194.33" cy="126.81" r="23.92" fill="#fff"/><path d="M200.88,103.84c.46.48.89,1,1.32,1.48,5.79,4.15,9.59,10.54,9.75,19.46.15,8.22-2.19,17.15-9.05,22.27a20.34,20.34,0,0,1-8.72,3.67h0a23.92,23.92,0,0,0,6.66-46.89Z" fill="#eae8e5"/><path d="M199,102.2S194.1,92,192.25,92.47a45.52,45.52,0,0,0-11.77,4.74l2.71,11.66S193.65,111.55,199,102.2Z" fill="#68e1fd" class="target-color"/><circle cx="211.51" cy="121.8" r="2.37" fill="#185543"/><circle cx="192.1" cy="123.3" r="2.37" fill="#185543"/><path d="M202.45,125.67s9.57,2.64,9.16,5-10.71,0-10.71,0S199.28,126.56,202.45,125.67Z" fill="#ed7b2e"/><path d="M201.44,133.78a4,4,0,0,1-3.2,1.85,2.16,2.16,0,0,1-2.14-2.14,1,1,0,0,0-2,0,4.16,4.16,0,0,0,3.16,4,5.58,5.58,0,0,0,5.59-2.3C203.64,134.19,202.23,132.77,201.44,133.78Z" fill="#185543"/><path d="M201.19,154.22a1,1,0,0,0,0,2A1,1,0,0,0,201.19,154.22Z" fill="#185543"/><path d="M202.06,159.85a1,1,0,0,0,0,2A1,1,0,0,0,202.06,159.85Z" fill="#185543"/><path d="M202.49,165.49a1,1,0,0,0,0,2A1,1,0,0,0,202.49,165.49Z" fill="#185543"/><path d="M173.74,145.47l-18.38-11.91a46.52,46.52,0,0,1-1.57-5,1,1,0,0,0-1.93.53c.32,1.31.72,2.59,1.16,3.86a1.12,1.12,0,0,0-.14.18l-3.43-.52c-1.26-.19-1.8,1.74-.53,1.93l5.4.81h.08l18.33,11.88C173.81,147.9,174.81,146.17,173.74,145.47Z" fill="#185543"/><path d="M228.48,118.51a16,16,0,0,1-2.14,2.58l-1.58-2.55c-.68-1.09-2.41-.09-1.73,1l2,3.28a1,1,0,0,0-.12.26,181.66,181.66,0,0,1-6.35,21.22c-.44,1.21,1.49,1.73,1.93.53a181.66,181.66,0,0,0,6.35-21.22,1,1,0,0,0,0-.32,18.19,18.19,0,0,0,3.32-3.79C230.92,118.45,229.19,117.44,228.48,118.51Z" fill="#185543"/><path d="M317.26,143.8c-4.5,0-4.51,7,0,7S321.78,143.8,317.26,143.8Z" fill="#fff"/><path d="M302,189.7c-4.5,0-4.51,7,0,7S306.48,189.7,302,189.7Z" fill="#fff"/><path d="M260.81,198.14c-4.5,0-4.51,7,0,7S265.33,198.14,260.81,198.14Z" fill="#fff"/><path d="M171.65,206.06c-4.5,0-4.51,7,0,7S176.16,206.06,171.65,206.06Z" fill="#fff"/><path d="M136.83,135.89c-4.5,0-4.51,7,0,7S141.34,135.89,136.83,135.89Z" fill="#fff"/><path d="M197.5,69.94c-4.5,0-4.51,7,0,7S202,69.94,197.5,69.94Z" fill="#fff"/><path d="M254,118a3.56,3.56,0,0,0-3.5,3.5V122a3.5,3.5,0,0,0,7,0v-.53A3.54,3.54,0,0,0,254,118Z" fill="#fff"/><path d="M113.62,154.35a3.56,3.56,0,0,0-3.5,3.5v.53a3.5,3.5,0,1,0,7,0v-.53A3.54,3.54,0,0,0,113.62,154.35Z" fill="#fff"/><path d="M132.61,103.71c-4.5,0-4.51,7,0,7S137.12,103.71,132.61,103.71Z" fill="#fff"/><path d="M191.7,58.86a3.56,3.56,0,0,0-3.5,3.5v.53a3.5,3.5,0,0,0,7,0v-.53A3.54,3.54,0,0,0,191.7,58.86Z" fill="#fff"/><path d="M338.9,156.85a1,1,0,0,0,0,2A1,1,0,0,0,338.9,156.85Z" fill="#fff"/><path d="M309.88,173.21a1,1,0,0,0,0,2A1,1,0,0,0,309.88,173.21Z" fill="#fff"/><path d="M260.81,222.27a1,1,0,0,0,0,2A1,1,0,0,0,260.81,222.27Z" fill="#fff"/><path d="M209.69,236.46V237a1,1,0,0,0,2,0v-.53A1,1,0,0,0,209.69,236.46Z" fill="#fff"/><path d="M256.65,152.58v3.17a1,1,0,0,0,2,0v-3.17A1,1,0,0,0,256.65,152.58Z" fill="#fff"/><path d="M248.68,92.49a1,1,0,0,0,0,2A1,1,0,0,0,248.68,92.49Z" fill="#fff"/><path d="M116.26,197.48a1,1,0,0,0,0,2A1,1,0,0,0,116.26,197.48Z" fill="#fff"/><path d="M79.33,92a1,1,0,0,0,0,2A1,1,0,0,0,79.33,92Z" fill="#fff"/><path d="M117.84,62.94h-.53a1,1,0,0,0,0,2h.53A1,1,0,0,0,117.84,62.94Z" fill="#fff"/></svg>