<svg width="32" height="38" viewBox="0 0 32 38" fill="none" xmlns="http://www.w3.org/2000/svg">
<rect x="0.5" y="4.5" width="31" height="31" rx="1.5" stroke="#191919"/>
<path d="M17.32 24.168L13.032 27.272L12.808 26.6H22.216V29H10.376V26.6C11.7627 25.5547 12.9893 24.6693 14.056 23.944C15.144 23.2187 16.0613 22.568 16.808 21.992C17.5547 21.416 18.12 20.8293 18.504 20.232C18.9093 19.6347 19.112 18.9413 19.112 18.152C19.112 17.5547 18.9947 17.032 18.76 16.584C18.5253 16.1147 18.1627 15.752 17.672 15.496C17.2027 15.2187 16.584 15.08 15.816 15.08C14.8773 15.08 14.0667 15.3787 13.384 15.976C12.7013 16.5733 12.36 17.352 12.36 18.312H10.12C10.0133 17.2453 10.2053 16.296 10.696 15.464C11.208 14.6107 11.912 13.9387 12.808 13.448C13.7253 12.936 14.728 12.68 15.816 12.68C16.7547 12.68 17.5867 12.8293 18.312 13.128C19.0373 13.4053 19.6453 13.7893 20.136 14.28C20.648 14.7707 21.032 15.336 21.288 15.976C21.544 16.616 21.672 17.288 21.672 17.992C21.672 18.632 21.5653 19.2187 21.352 19.752C21.16 20.2853 20.872 20.7973 20.488 21.288C20.1253 21.7787 19.6773 22.2587 19.144 22.728C18.6107 23.1973 18.0027 23.6773 17.32 24.168Z" fill="#191919"/>
</svg>
