<svg width="67" height="67" viewBox="0 0 67 67" fill="none" xmlns="http://www.w3.org/2000/svg">
<circle cx="33.5" cy="33.5" r="33.5" fill="#121212"/>
<path d="M39.0006 26C39.0006 27.3261 38.4738 28.5979 37.5362 29.5355C36.5985 30.4732 35.3267 31 34.0006 31C32.6745 31 31.4028 30.4732 30.4651 29.5355C29.5274 28.5979 29.0006 27.3261 29.0006 26C29.0006 24.6739 29.5274 23.4021 30.4651 22.4645C31.4028 21.5268 32.6745 21 34.0006 21C35.3267 21 36.5985 21.5268 37.5362 22.4645C38.4738 23.4021 39.0006 24.6739 39.0006 26ZM24.002 44.824C24.0448 42.2005 25.1171 39.6989 26.9875 37.8587C28.858 36.0186 31.3767 34.9873 34.0006 34.9873C36.6245 34.9873 39.1433 36.0186 41.0137 37.8587C42.8842 39.6989 43.9564 42.2005 43.9993 44.824C40.8625 46.2624 37.4515 47.0047 34.0006 47C30.4326 47 27.046 46.2213 24.002 44.824Z" stroke="white" stroke-width="1.5" stroke-linecap="round" stroke-linejoin="round"/>
</svg>
