<svg id="Layer_1" data-name="Layer 1" xmlns="http://www.w3.org/2000/svg" xmlns:xlink="http://www.w3.org/1999/xlink" viewBox="0 0 400 300" data-imageid="wallet-isometric-e592c" imageName="Wallet" class="illustrations_image" style="width: 195px;"><defs><linearGradient id="linear-gradient" x1="215.96" y1="211.13" x2="243.51" y2="145.55" gradientUnits="userSpaceOnUse"><stop offset="0" stop-color="gray" stop-opacity="0"/><stop offset="1" stop-color="#009245"/></linearGradient><linearGradient id="linear-gradient-2" x1="126.1" y1="234.55" x2="161.74" y2="205.36" xlink:href="#linear-gradient"/><linearGradient id="linear-gradient-3" x1="92" y1="223.78" x2="117.16" y2="203.18" xlink:href="#linear-gradient"/><linearGradient id="linear-gradient-4" x1="64.56" y1="205.19" x2="84.66" y2="188.72" xlink:href="#linear-gradient"/><linearGradient id="linear-gradient-5" x1="188.74" y1="250.68" x2="210.14" y2="227.8" xlink:href="#linear-gradient"/></defs><title>#31-40</title><path d="M209.22,285.75,359,201.7a7.16,7.16,0,0,0,.27-12.32L214.07,99.44a7.16,7.16,0,0,0-7.36-.11L48.31,191.26a7.16,7.16,0,0,0,0,12.38l141.25,82A19.84,19.84,0,0,0,209.22,285.75Z" fill="#acef78"/><path d="M252.68,247.89l49.14-28.46-123.3-62.79-42.08,31.09C142.77,191.58,246.47,243.88,252.68,247.89Z" fill="url(#linear-gradient)"/><path d="M129.42,250.71l38.48-27.46-26.29-21L99.53,233.37C105.85,237.21,123.21,246.7,129.42,250.71Z" fill="url(#linear-gradient-2)"/><path d="M118,215.13l-16.66-6.3L75,225.1c5.89,3.58,12.17,6.39,18,10C101,228,109.53,221.65,118,215.13Z" fill="url(#linear-gradient-3)"/><path d="M68.65,215,88.37,199.1,75.63,188,49.34,204.24C55.66,208.08,62.44,211,68.65,215Z" fill="url(#linear-gradient-4)"/><path d="M289.36,110.36,203.6,60.85v80.52l83,46.86a4.49,4.49,0,0,0,6.7-3.91V117.24A7.94,7.94,0,0,0,289.36,110.36Z" fill="#68e1fd" class="target-color"/><path d="M222.6,54.36l-9.08-.48a8.71,8.71,0,0,0-.89,1.65l1.13,3.9,12.4,2.37Z" fill="#68e1fd" class="target-color"/><path d="M244.54,43.22c-.62,0-3.21-2.24-7.38-.2s-16.78,21-16.78,21l8.55,5.54,8.55-10.13,2.43,16.26S249,82.64,265,74.9L263.85,64s7.11-5.73,8.5-14.41S249.94,41,249.94,41" fill="#68e1fd" class="target-color"/><path d="M265,74.9a63.74,63.74,0,0,1,3.26,18L241.61,80.45l-1.71-4.72" fill="#ffc339"/><path d="M289.36,110.36,203.6,60.85v80.52l83,46.86a4.49,4.49,0,0,0,6.7-3.91V117.24A7.94,7.94,0,0,0,289.36,110.36Z" opacity="0.36"/><path d="M203.6,60.85s-13.74-7.41-23.88-2.06c-8.56,4.52-10.28,13-3.6,22.49s33.3,23.37,33.3,23.37" fill="#68e1fd" class="target-color"/><path d="M203.6,60.85s-13.74-7.41-23.88-2.06c-8.56,4.52-10.28,13-3.6,22.49s33.3,23.37,33.3,23.37" opacity="0.36"/><path d="M286.08,80.11,194.22,49.56v80.52l83,46.86a4.49,4.49,0,0,0,6.7-3.91l2.86-70.18C286.8,100,288.53,81.53,286.08,80.11Z" fill="#87d8ab"/><path d="M241.56,27.57a8.9,8.9,0,0,0-6.32,9.2c.3,6.87,7.47,3.3,7.47,3.3l7.24.93s1.31-.27,1.79-6S247.35,27.12,241.56,27.57Z" fill="#e7483b"/><path d="M237.3,34.39c-.56,2.34.42,5.29,1.56,7.12a8.79,8.79,0,0,0,5.39,4c2.4.55,4.23-.78,5.16-2.95a10.16,10.16,0,0,0,.43-7.32,7.53,7.53,0,0,0-4.5-4.39,7.37,7.37,0,0,0-6.6,1.18A4.18,4.18,0,0,0,237.3,34.39Z" fill="#ffc339"/><path d="M236.38,36.84a36.53,36.53,0,0,0,7.36,2,18.86,18.86,0,0,1,1-2.91c.07.31.6,2.91.6,2.91l1.59.64.28,1.53s1.44-3.07,2.08-1.53-.91,4.49-.91,4.49a15.43,15.43,0,0,0,3.37-4c1.15-2.2,2.93-10.85-6.41-11.79S236.38,36.84,236.38,36.84Z" fill="#e7483b"/><path d="M245.36,28.12s1.47-7,5.92-7.47a8.29,8.29,0,0,1,9,8.69s-.15,3.72-1.11,5.63l-4.1,1s-.53-11.94-7.62-7.55" fill="#e7483b"/><path d="M249.37,62.25a10,10,0,0,1-1.46.83c-1.53.22-3.06.3-4.64.43-.73.06-2.58.11-2.5,1.28s1.53,1,2.24,1c.47,0,.95-.08,1.42-.14a7,7,0,0,0-1.54,2.21c-.36.84-1,2.7-.42,3.57s1.36,0,1.53-.67A11.25,11.25,0,0,1,245.13,68a9.51,9.51,0,0,0-.2,4.78.57.57,0,0,0,1,.13,13.91,13.91,0,0,0,.65-3.14,13.22,13.22,0,0,1,.61-2,13.48,13.48,0,0,0-.2,4.1.56.56,0,0,0,.13.3s0,.07,0,.1a.57.57,0,0,0,.71.54c.83-.22.92-1.22,1-2a32.65,32.65,0,0,1,.4-3.55,8.73,8.73,0,0,0,.75,3.62.49.49,0,0,0,.74.18.53.53,0,0,0,.41-.52c0-.54,0-1.08,0-1.62l.07-1a5.39,5.39,0,0,0,2.9-1.3A16.7,16.7,0,0,1,249.37,62.25Z" fill="#ffc339"/><path d="M215.37,52.22a3.57,3.57,0,0,0-.58.33,5.48,5.48,0,0,0-1.27,1.33l9.08.48A6.62,6.62,0,0,0,215.37,52.22Z" fill="#68e1fd" class="target-color"/><path d="M224.23,58.53l-.21-.11a.47.47,0,0,0-.2-.27l-.81-.52a.42.42,0,0,0-.14-.14A5.14,5.14,0,0,1,221.24,56a.48.48,0,0,0-.42-.22.62.62,0,0,0-.6-.25,1.28,1.28,0,0,0-.66.28,1,1,0,0,0-.53-.48,1.13,1.13,0,0,0-1.24.51,1,1,0,0,0-.47-.69.78.78,0,0,0-.89.06,1.66,1.66,0,0,0-.41-.37l-.07-.07a.72.72,0,0,0-.89-.09,1.71,1.71,0,0,0-1,1.09.51.51,0,0,0-.26.39c-.11.82-.69,4.52,1.09,4a.48.48,0,0,0,.24-.17c0,.13,0,.25.06.38.13.82.27,1.59,1.2,1.64,0,.79.24,1.9.94,1.84a.45.45,0,0,0,.6-.32,2.47,2.47,0,0,0,.42-1.06c.19.21.47.27.88,0a.94.94,0,0,0,.15-.15.51.51,0,0,0,.23-.3,8.61,8.61,0,0,0,.44-1.13l.93-2.43.32.1a15.35,15.35,0,0,0,1.74.9c.47.2,1.24.45,1.41-.27A.51.51,0,0,0,224.23,58.53Z" fill="#ffc339"/><path d="M194.22,56.85c0,.35,14.22,4.14,15.14,4.43,10.77,3.37,21.51,6.82,32.25,10.28q13.89,4.47,27.77,9c5.78,1.88,13.08,2.59,13.08,10.31,0,4.57-1.13,39.64-1.13,39.64" fill="none" stroke="#39b54a" stroke-miterlimit="10"/><ellipse cx="234.2" cy="107.35" rx="21.48" ry="29.07" transform="translate(-23.42 105.39) rotate(-24.19)" fill="#d1eae4"/><ellipse cx="252.68" cy="157.97" rx="20.8" ry="28.15" transform="translate(-35.95 83.83) rotate(-17.61)" fill="#d1eae4"/><polyline points="285.56 133.27 285.7 129.87 210.2 87.85 210.44 101.63 257.7 128.91" opacity="0.2"/><path d="M297.86,141,212.1,91.47V172l83,46.86a4.49,4.49,0,0,0,6.7-3.91V147.85A7.94,7.94,0,0,0,297.86,141Z" fill="#87d8ab"/><path d="M212.1,97.85l75.29,43.5s9.32,4,9.5,11.33,0,53.51,0,53.51.55,8.85-4.75,7.09l-30.47-17" fill="none" stroke="#39b54a" stroke-miterlimit="10"/><path d="M257.7,129.52,172,80v80.52l83,46.86a4.49,4.49,0,0,0,6.7-3.91V136.39A7.94,7.94,0,0,0,257.7,129.52Z" fill="#68e1fd" class="target-color"/><path d="M172,86.88V71s.93,11.35,13.38,16.6" fill="#68e1fd" class="target-color"/><path d="M173.12,85.34a.5.5,0,0,1-.4-.2q-.3-.41-.59-.83a.5.5,0,1,1,.82-.57q.28.41.57.8a.5.5,0,0,1-.4.8Z" fill="#2e3192"/><path d="M252.18,133.16a.5.5,0,0,1-.27-.08L250.27,132a.5.5,0,1,1,.54-.84l1.65,1.06a.5.5,0,0,1-.27.92ZM247.23,130A.5.5,0,0,1,247,130l-1.66-1a.5.5,0,1,1,.53-.85l1.66,1a.5.5,0,0,1-.26.92Zm-5-3.07a.5.5,0,0,1-.26-.07l-1.67-1a.5.5,0,0,1,.51-.86l1.67,1a.5.5,0,0,1-.26.93Zm-5-3a.5.5,0,0,1-.25-.07l-1.68-1a.5.5,0,0,1,.51-.86l1.68,1a.5.5,0,0,1-.25.93Zm-5.06-3a.5.5,0,0,1-.25-.07l-1.69-1a.5.5,0,1,1,.5-.87l1.69,1a.5.5,0,0,1-.25.93Zm-5.08-2.91a.5.5,0,0,1-.25-.06l-1.7-1a.5.5,0,1,1,.49-.87l1.7,1a.5.5,0,0,1-.25.94Zm-5.1-2.88a.5.5,0,0,1-.25-.06l-1.7-1a.5.5,0,1,1,.49-.87l1.71,1a.5.5,0,0,1-.25.94Zm-5.11-2.86a.5.5,0,0,1-.24-.06l-1.71-1a.5.5,0,0,1,.49-.87l1.71,1a.5.5,0,0,1-.24.94Zm-5.12-2.86a.5.5,0,0,1-.24-.06l-1.71-1a.5.5,0,0,1,.49-.87l1.7,1a.5.5,0,0,1-.24.94Zm-5.11-2.86a.5.5,0,0,1-.25-.06l-1.7-1a.5.5,0,0,1,.49-.87l1.7,1a.5.5,0,0,1-.25.94Zm-5.11-2.88a.5.5,0,0,1-.25-.06l-1.7-1a.5.5,0,0,1,.5-.87l1.7,1a.5.5,0,0,1-.25.94Zm-5.09-2.9a.5.5,0,0,1-.25-.07l-1.69-1a.5.5,0,0,1,.5-.87l1.69,1a.5.5,0,0,1-.25.93Zm-5.09-2.9a.5.5,0,0,1-.24-.06l-1.71-.94a.5.5,0,1,1,.48-.88l1.72.94a.5.5,0,0,1-.24.94Zm-5.14-2.82a.5.5,0,0,1-.25-.06l-1.7-1a.5.5,0,0,1,.5-.86l1.69,1a.5.5,0,0,1-.25.94Zm-5-3a.5.5,0,0,1-.28-.08q-.83-.54-1.62-1.12a.5.5,0,1,1,.58-.81q.78.56,1.59,1.1a.5.5,0,0,1-.28.92Zm-4.66-3.54a.5.5,0,0,1-.33-.13q-.74-.66-1.44-1.36a.5.5,0,1,1,.71-.71q.68.68,1.4,1.32a.5.5,0,0,1-.33.87Z" fill="#2e3192"/><path d="M256.46,136.84a.5.5,0,0,1-.49-.42l-.14-.77-.65-.43a.5.5,0,1,1,.55-.83l1,.67.21,1.2a.5.5,0,0,1-.41.58Z" fill="#2e3192"/><path d="M256.22,202.82a.5.5,0,0,1-.18-1c.52-.2.74-.43.75-.51v-.49a.5.5,0,0,1,1,0v.5c0,.57-.51,1.09-1.39,1.43A.5.5,0,0,1,256.22,202.82Zm-3.88-.32a.5.5,0,0,1-.3-.1l-.1-.08-1.63-.7a.5.5,0,1,1,.4-.92l1.68.72.25.17a.5.5,0,0,1-.3.9ZM246.85,200a.5.5,0,0,1-.22-.05l-1.81-.92a.5.5,0,1,1,.46-.89l1.79.91a.5.5,0,0,1-.22.95Zm10.48-2.65h0a.5.5,0,0,1-.49-.51q0-1,0-2a.5.5,0,1,1,1,0q0,1,0,2A.5.5,0,0,1,257.33,197.32Zm-15.81-.22a.49.49,0,0,1-.25-.07l-1.75-1a.5.5,0,0,1,.52-.86l1.73,1a.5.5,0,0,1-.25.93Zm-5.17-3.15a.5.5,0,0,1-.27-.08l-1.7-1.09a.5.5,0,0,1,.54-.84l1.7,1.08a.5.5,0,0,1-.27.92Zm21.14-2.69h0a.5.5,0,0,1-.48-.52l.07-2a.52.52,0,0,1,.52-.48.5.5,0,0,1,.48.52l-.07,2A.5.5,0,0,1,257.48,191.26Zm-26.24-.58a.49.49,0,0,1-.27-.08l-1.7-1.08a.5.5,0,0,1,.54-.84l1.7,1.09a.5.5,0,0,1-.27.92Zm-5.11-3.26a.5.5,0,0,1-.27-.08l-1.71-1.07a.5.5,0,1,1,.53-.85l1.71,1.08a.5.5,0,0,1-.27.92Zm31.57-2.22h0a.5.5,0,0,1-.48-.52l.08-2a.51.51,0,0,1,.52-.48.5.5,0,0,1,.48.52l-.08,2A.5.5,0,0,1,257.7,185.2Zm-36.72-1a.49.49,0,0,1-.26-.07l-1.73-1a.5.5,0,0,1,.51-.86l1.73,1a.5.5,0,0,1-.26.93Zm-5.22-3.07a.5.5,0,0,1-.25-.07l-1.75-1a.5.5,0,0,1,.49-.87l1.75,1a.5.5,0,0,1-.25.93Zm42.18-2h0a.5.5,0,0,1-.48-.52l.08-2a.49.49,0,0,1,.52-.48.5.5,0,0,1,.48.52l-.08,2A.5.5,0,0,1,257.95,179.15Zm-47.46-1a.5.5,0,0,1-.24-.06l-1.77-1a.5.5,0,1,1,.48-.88l1.77,1a.5.5,0,0,1-.24.94Zm-5.32-2.9a.5.5,0,0,1-.24-.06l-1.78-1a.5.5,0,1,1,.47-.88l1.78,1a.5.5,0,0,1-.24.94Zm53-2.19h0a.5.5,0,0,1-.48-.52l.06-2a.51.51,0,0,1,.51-.49.5.5,0,0,1,.49.51l-.06,2A.5.5,0,0,1,258.17,173.1Zm-58.35-.67a.49.49,0,0,1-.23-.06l-1.78-.95a.5.5,0,1,1,.47-.88l1.78.95a.5.5,0,0,1-.23.94Zm-5.35-2.84a.5.5,0,0,1-.24-.06l-1.78-1a.5.5,0,0,1,.47-.88l1.78,1a.5.5,0,0,1-.24.94ZM258.33,167h0a.5.5,0,0,1-.49-.51q0-1,0-2a.49.49,0,0,1,.5-.5.5.5,0,0,1,.5.5q0,1,0,2A.5.5,0,0,1,258.33,167Zm-69.19-.32a.5.5,0,0,1-.24-.06l-1.77-1a.5.5,0,1,1,.48-.88l1.77,1a.5.5,0,0,1-.24.94Zm-5.3-2.92a.5.5,0,0,1-.25-.06l-1.76-1a.5.5,0,1,1,.5-.87l1.75,1a.5.5,0,0,1-.25.94ZM258.36,161a.5.5,0,0,1-.5-.5q0-1,0-2a.5.5,0,0,1,.49-.51.54.54,0,0,1,.51.49q0,1,0,2a.5.5,0,0,1-.5.5Zm-79.78-.2a.49.49,0,0,1-.25-.07l-1.74-1a.5.5,0,0,1,.51-.86l1.73,1a.5.5,0,0,1-.25.93Zm79.66-5.86a.5.5,0,0,1-.5-.48q0-1-.08-2a.5.5,0,1,1,1,0q0,1,.08,2a.5.5,0,0,1-.48.52Zm-.33-6.05a.5.5,0,0,1-.5-.46q-.07-1-.16-2a.5.5,0,0,1,.45-.54.51.51,0,0,1,.54.45q.09,1,.16,2a.5.5,0,0,1-.46.53Zm-.58-6a.5.5,0,0,1-.5-.44q-.12-1-.25-2a.5.5,0,0,1,.43-.56.51.51,0,0,1,.56.43q.14,1,.26,2a.5.5,0,0,1-.44.56Z" fill="#2e3192"/><path d="M173.35,157.62a.5.5,0,0,1-.26-.08l-.85-.53a.5.5,0,1,1,.53-.85l.85.53a.5.5,0,0,1-.26.92Z" fill="#2e3192"/><ellipse cx="247.35" cy="166.81" rx="5.4" ry="5.88" transform="translate(-44.37 104.28) rotate(-21.9)" fill="#443ce5"/><path d="M261.67,49.35s-9.49,9.48-13.73,10.47a16.21,16.21,0,0,0,8.14,8.69s9.39-2.73,11.68-8.73c0,0-5.09,7.07-11.35,7.58a17.47,17.47,0,0,1-7.34-7S257.23,56.76,261.67,49.35Z" fill="#181884"/><polygon points="237.13 53.13 240.76 64.8 237.73 64.03 237.13 53.13" fill="#181884"/><path d="M247.23,164.38c-3.22,0-3.22,5,0,5S250.46,164.38,247.23,164.38Z" fill="#ffb92c"/><path d="M118.88,211.07a4.18,4.18,0,0,1-.35,2.37c-.57,1-1.45,2.75-3.6,2.43s-6.26-2.86-8-3.64-6.31-1.67-6.37-2.5,0-3.05,0-3.05" fill="#4c0d0a"/><path d="M109.79,204s.54,1.75,3.6,3.14,6,2.77,5.44,4.61a3.75,3.75,0,0,1-3.91,2.76c-1.92,0-6.21-3.53-9-4.29s-5.06-1.23-5.21-2.15,0-5.75,0-5.75" fill="#443ce5"/><path d="M89.11,195.76s.42,3-.73,3.34a7.92,7.92,0,0,1-5.13-.54c-2.2-.92-8.69-7.11-9.32-9.36,0,0-.44-1.29,3.13-4.47" fill="#4c0d0a"/><path d="M84.81,187.71s-.63,2.38,0,3.59,4.5,3.22,4.29,4.47-1.82,2.74-4.57,1.62-7.37-5-8.31-6.54-1.78-2.84-.73-4.41,6.57-6.07,6.57-6.07" fill="#443ce5"/><path d="M104.8,138.3l14.44,6.51-33.35,44s-7.25,0-8.48-7.19Z" fill="#d33b33"/><path d="M144.15,158.31a9.63,9.63,0,0,0-5.46-1.81c-.87,0-.87,1.33,0,1.36a8.28,8.28,0,0,1,3.85,1c.74.41,2.72,1.64,2.61,2.68-.13,1.23-2.66-.82-3.19-1.18-1.14-.77-2.26-1.58-3.36-2.41-.7-.52-1.38.65-.68,1.17,1.15.86,8.32,7.07,8.63,2.8C146.66,160.4,145.28,159.14,144.15,158.31Z" fill="#e7483b"/><path d="M107,150.75s1.68,15.3,3.85,24.57.75,28.95.75,28.95-10.64,5.23-11.62,0-2.28-22.71-2.28-22.71-5.5-15.3-6.34-23.56c-.66-6.48,4.44-14,4.44-14" fill="#e7483b"/><path d="M126.63,201.31l-4.47-27.2a7.12,7.12,0,0,1,3.52-7c4.28-2.65,15.6-10.32,15.6-10.32s5.71-1.66,6.63,2.51c.63,2.87,5.22,25.48,5.22,25.48" fill="none" stroke="#42210b" stroke-miterlimit="10" stroke-width="3"/><path d="M176.07,211.32l-14.57,8.23a.68.68,0,0,0,.68,1.17l14.57-8.23A.68.68,0,0,0,176.07,211.32Z" fill="#e7483b"/><path d="M160.63,220.46c-.36-4.31-3.76-7.63-5.8-11.21a.68.68,0,0,0-1.17.69c1.51,2.66,3.63,5,4.82,7.84.85,2,1.2,4.19,0,6.15-.83,1.38-1.85,2.23-3.55,1.9q-1.93.37-1.64-1.8-1.38-2.2,1.33-2.66c.86-.12.49-1.43-.36-1.31-5.46.75-2.86,9,2.64,7.08C159.66,226.21,160.86,223.16,160.63,220.46Z" fill="#e7483b"/><path d="M137.38,211.58a4.24,4.24,0,1,1-8.36,1.29c-.38-2.48.36-4.82,3.49-5.14A4.48,4.48,0,0,1,137.38,211.58Z" fill="#9e3312"/><path d="M133.54,216.95a6.52,6.52,0,0,0,2.27-1.09c.95-.77.24-2.75.24-2.75" fill="#9e3312"/><ellipse cx="132.13" cy="212.63" rx="4.23" ry="4.55" transform="translate(-30.84 22.6) rotate(-8.76)" fill="#f15a24"/><ellipse cx="132.13" cy="212.63" rx="2.73" ry="2.93" transform="translate(-30.84 22.6) rotate(-8.76)" fill="#f2ab1c"/><path d="M160.15,222.6a4.24,4.24,0,1,1-8.36,1.29c-.38-2.48.36-4.82,3.49-5.14A4.48,4.48,0,0,1,160.15,222.6Z" fill="#9e3312"/><path d="M156.31,228a6.52,6.52,0,0,0,2.27-1.09c.95-.77.24-2.75.24-2.75" fill="#9e3312"/><ellipse cx="154.9" cy="223.65" rx="4.23" ry="4.55" transform="translate(-32.25 26.19) rotate(-8.76)" fill="#f15a24"/><ellipse cx="154.9" cy="223.65" rx="2.73" ry="2.93" transform="translate(-32.25 26.19) rotate(-8.76)" fill="#f2ab1c"/><path d="M124.84,204.89l35.77,20.27a4.23,4.23,0,0,0,4.29-.07l25-15.27a1.27,1.27,0,0,0,0-2.18L154.67,187.3a3.27,3.27,0,0,0-3.28,0l-26.56,15.38A1.27,1.27,0,0,0,124.84,204.89Z" fill="#68e1fd" class="target-color"/><polygon points="124.22 203.54 124.22 200.47 126.75 202.36 124.22 203.54" fill="#68e1fd" class="target-color"/><polygon points="190.52 205.47 190.52 208.61 187.82 207.04 190.52 205.47" fill="#68e1fd" class="target-color"/><g opacity="0.36"><path d="M124.84,204.89l35.77,20.27a4.23,4.23,0,0,0,4.29-.07l25-15.27a1.27,1.27,0,0,0,0-2.18L154.67,187.3a3.27,3.27,0,0,0-3.28,0l-26.56,15.38A1.27,1.27,0,0,0,124.84,204.89Z"/><polygon points="124.22 203.54 124.22 200.47 126.75 202.36 124.22 203.54"/><polygon points="190.52 205.47 190.52 208.61 187.82 207.04 190.52 205.47"/></g><path d="M124.84,201.54l35.77,20.27a4.23,4.23,0,0,0,4.29-.07l25-15.27a1.27,1.27,0,0,0,0-2.18L154.67,184a3.27,3.27,0,0,0-3.28,0l-26.56,15.38A1.27,1.27,0,0,0,124.84,201.54Z" fill="#68e1fd" class="target-color"/><ellipse cx="158.48" cy="205.19" rx="20.26" ry="11.87" fill="#ff912e"/><polygon points="138.22 205.19 138.22 201.76 140.42 204.5 138.22 205.19" fill="#e0944f"/><polygon points="178.74 201.76 178.74 205.19 176.16 205.19 178.05 202.44 178.74 201.76" fill="#e0944f"/><ellipse cx="158.48" cy="201.76" rx="20.26" ry="11.87" fill="#ffb92c"/><path d="M168.75,200.18a1.58,1.58,0,0,1,.16.9l-.08.31-3.7,0a1.68,1.68,0,0,0,.07-.31,1.38,1.38,0,0,0-.22-.67,2,2,0,0,0-.89-.82,4,4,0,0,0-1.74-.46,3.75,3.75,0,0,0-1.65.25q-.78.33-.6.87a3.2,3.2,0,0,0,.79,1.16,14.08,14.08,0,0,1,1.12,1.29,1.35,1.35,0,0,1,.2,1.43,3.19,3.19,0,0,1-1.8,1.4,10.64,10.64,0,0,1-3.92.82,12.54,12.54,0,0,1-4.29-.61l-2.13.91-2.49-1.21,2.07-.89a4.67,4.67,0,0,1-1-.89,2.63,2.63,0,0,1-.49-.83,2.71,2.71,0,0,1-.13-.67,1.45,1.45,0,0,1,0-.47l.07-.18h3.7a3,3,0,0,0-.09.37,1.57,1.57,0,0,0,.3.84,2.78,2.78,0,0,0,1.23,1,5.26,5.26,0,0,0,2.15.56,4.47,4.47,0,0,0,2-.32q.77-.33.58-.87a3.2,3.2,0,0,0-.82-1.16,11.84,11.84,0,0,1-1.13-1.29,1.33,1.33,0,0,1-.16-1.43,3.45,3.45,0,0,1,1.89-1.43,10.18,10.18,0,0,1,3.76-.74,10.86,10.86,0,0,1,4,.62l2.12-.91,2.32,1.26-2.13.91A3,3,0,0,1,168.75,200.18Z" fill="#ea8b24"/><path d="M158.51,213.45c-10.42,0-18.58-5.07-18.58-11.54s8.16-11.54,18.58-11.54,18.58,5.07,18.58,11.54S168.93,213.45,158.51,213.45Zm0-19.93c-8.36,0-15.43,3.84-15.43,8.39s7.07,8.39,15.43,8.39,15.43-3.84,15.43-8.39S166.88,193.52,158.51,193.52Z" fill="#f7931e"/><ellipse cx="158.48" cy="198.65" rx="20.26" ry="11.87" fill="#ff912e"/><polygon points="138.22 198.65 138.22 195.23 140.42 197.97 138.22 198.65" fill="#e0944f"/><polygon points="178.74 195.23 178.74 198.65 176.16 198.65 178.05 195.9 178.74 195.23" fill="#e0944f"/><ellipse cx="158.48" cy="195.23" rx="20.26" ry="11.87" fill="#ffb92c"/><path d="M168.75,193.64a1.58,1.58,0,0,1,.16.9l-.08.31-3.7,0a1.68,1.68,0,0,0,.07-.31,1.38,1.38,0,0,0-.22-.67,2,2,0,0,0-.89-.82,4,4,0,0,0-1.74-.46,3.75,3.75,0,0,0-1.65.25q-.78.33-.6.87a3.2,3.2,0,0,0,.79,1.16,14.08,14.08,0,0,1,1.12,1.29,1.35,1.35,0,0,1,.2,1.43,3.19,3.19,0,0,1-1.8,1.4,10.64,10.64,0,0,1-3.92.82,12.54,12.54,0,0,1-4.29-.61l-2.13.91-2.49-1.21,2.07-.89a4.67,4.67,0,0,1-1-.89,2.63,2.63,0,0,1-.49-.83,2.71,2.71,0,0,1-.13-.67,1.45,1.45,0,0,1,0-.47l.07-.18h3.7a3,3,0,0,0-.09.37,1.57,1.57,0,0,0,.3.84,2.78,2.78,0,0,0,1.23,1,5.26,5.26,0,0,0,2.15.56,4.47,4.47,0,0,0,2-.32q.77-.33.58-.87a3.2,3.2,0,0,0-.82-1.16,11.84,11.84,0,0,1-1.13-1.29,1.33,1.33,0,0,1-.16-1.43,3.45,3.45,0,0,1,1.89-1.43,10.18,10.18,0,0,1,3.76-.74,10.86,10.86,0,0,1,4,.62l2.12-.91,2.32,1.26-2.13.91A3,3,0,0,1,168.75,193.64Z" fill="#ea8b24"/><path d="M158.51,206.91c-10.42,0-18.58-5.07-18.58-11.54s8.16-11.54,18.58-11.54,18.58,5.07,18.58,11.54S168.93,206.91,158.51,206.91Zm0-19.93c-8.36,0-15.43,3.84-15.43,8.39s7.07,8.39,15.43,8.39,15.43-3.84,15.43-8.39S166.88,187,158.51,187Z" fill="#f7931e"/><ellipse cx="158.48" cy="192.09" rx="20.26" ry="11.87" fill="#ff912e"/><polygon points="138.22 192.09 138.22 188.66 140.42 191.4 138.22 192.09" fill="#e0944f"/><polygon points="178.74 188.66 178.74 192.09 176.16 192.09 178.05 189.34 178.74 188.66" fill="#e0944f"/><ellipse cx="158.48" cy="188.66" rx="20.26" ry="11.87" fill="#ffb92c"/><path d="M168.75,187.08a1.58,1.58,0,0,1,.16.9l-.08.31-3.7,0a1.68,1.68,0,0,0,.07-.31,1.38,1.38,0,0,0-.22-.67,2,2,0,0,0-.89-.82,4,4,0,0,0-1.74-.46,3.75,3.75,0,0,0-1.65.25q-.78.33-.6.87a3.2,3.2,0,0,0,.79,1.16,14.08,14.08,0,0,1,1.12,1.29,1.35,1.35,0,0,1,.2,1.43,3.19,3.19,0,0,1-1.8,1.4,10.64,10.64,0,0,1-3.92.82,12.54,12.54,0,0,1-4.29-.61l-2.13.91-2.49-1.21,2.07-.89a4.67,4.67,0,0,1-1-.89,2.63,2.63,0,0,1-.49-.83,2.71,2.71,0,0,1-.13-.67,1.45,1.45,0,0,1,0-.47l.07-.18h3.7a3,3,0,0,0-.09.37,1.57,1.57,0,0,0,.3.84,2.78,2.78,0,0,0,1.23,1,5.26,5.26,0,0,0,2.15.56,4.47,4.47,0,0,0,2-.32q.77-.33.58-.87a3.2,3.2,0,0,0-.82-1.16,11.84,11.84,0,0,1-1.13-1.29,1.33,1.33,0,0,1-.16-1.43,3.45,3.45,0,0,1,1.89-1.43,10.18,10.18,0,0,1,3.76-.74,10.86,10.86,0,0,1,4,.62l2.12-.91L170,185l-2.13.91A3,3,0,0,1,168.75,187.08Z" fill="#ea8b24"/><path d="M158.51,200.35c-10.42,0-18.58-5.07-18.58-11.54s8.16-11.54,18.58-11.54,18.58,5.07,18.58,11.54S168.93,200.35,158.51,200.35Zm0-19.93c-8.36,0-15.43,3.84-15.43,8.39s7.07,8.39,15.43,8.39,15.43-3.84,15.43-8.39S166.88,180.42,158.51,180.42Z" fill="#f7931e"/><ellipse cx="158.48" cy="187.24" rx="20.26" ry="11.87" fill="#ff912e"/><polygon points="138.22 187.24 138.22 183.81 140.42 186.55 138.22 187.24" fill="#e0944f"/><polygon points="178.74 183.81 178.74 187.24 176.16 187.24 178.05 184.49 178.74 183.81" fill="#e0944f"/><ellipse cx="158.48" cy="183.81" rx="20.26" ry="11.87" fill="#ffb92c"/><path d="M168.75,182.22a1.58,1.58,0,0,1,.16.9l-.08.31-3.7,0a1.68,1.68,0,0,0,.07-.31,1.38,1.38,0,0,0-.22-.67,2,2,0,0,0-.89-.82,4,4,0,0,0-1.74-.46,3.75,3.75,0,0,0-1.65.25q-.78.33-.6.87a3.2,3.2,0,0,0,.79,1.16,14.08,14.08,0,0,1,1.12,1.29,1.35,1.35,0,0,1,.2,1.43,3.19,3.19,0,0,1-1.8,1.4,10.64,10.64,0,0,1-3.92.82,12.54,12.54,0,0,1-4.29-.61l-2.13.91-2.49-1.21,2.07-.89a4.67,4.67,0,0,1-1-.89,2.63,2.63,0,0,1-.49-.83,2.71,2.71,0,0,1-.13-.67,1.45,1.45,0,0,1,0-.47l.07-.18h3.7a3,3,0,0,0-.09.37,1.57,1.57,0,0,0,.3.84,2.78,2.78,0,0,0,1.23,1,5.26,5.26,0,0,0,2.15.56,4.47,4.47,0,0,0,2-.32q.77-.33.58-.87a3.2,3.2,0,0,0-.82-1.16,11.84,11.84,0,0,1-1.13-1.29,1.33,1.33,0,0,1-.16-1.43,3.45,3.45,0,0,1,1.89-1.43,10.18,10.18,0,0,1,3.76-.74,10.86,10.86,0,0,1,4,.62l2.12-.91,2.32,1.26-2.13.91A3,3,0,0,1,168.75,182.22Z" fill="#ea8b24"/><path d="M158.51,195.49c-10.42,0-18.58-5.07-18.58-11.54s8.16-11.54,18.58-11.54S177.1,177.48,177.1,184,168.93,195.49,158.51,195.49Zm0-19.93c-8.36,0-15.43,3.84-15.43,8.39s7.07,8.39,15.43,8.39,15.43-3.84,15.43-8.39S166.88,175.57,158.51,175.57Z" fill="#f7931e"/><ellipse cx="161.76" cy="180.67" rx="20.26" ry="11.87" fill="#ff912e"/><polygon points="141.51 180.67 141.51 177.25 143.71 179.99 141.51 180.67" fill="#e0944f"/><polygon points="182.02 177.25 182.02 180.67 179.45 180.67 181.34 177.92 182.02 177.25" fill="#e0944f"/><ellipse cx="161.76" cy="177.25" rx="20.26" ry="11.87" fill="#ffb92c"/><path d="M172,175.66a1.58,1.58,0,0,1,.16.9l-.08.31-3.7,0a1.68,1.68,0,0,0,.07-.31,1.38,1.38,0,0,0-.22-.67,2,2,0,0,0-.89-.82,4,4,0,0,0-1.74-.46,3.75,3.75,0,0,0-1.65.25q-.78.33-.6.87a3.2,3.2,0,0,0,.79,1.16,14.08,14.08,0,0,1,1.12,1.29,1.35,1.35,0,0,1,.2,1.43,3.19,3.19,0,0,1-1.8,1.4,10.64,10.64,0,0,1-3.92.82,12.54,12.54,0,0,1-4.29-.61l-2.13.91-2.49-1.21,2.07-.89a4.67,4.67,0,0,1-1-.89,2.63,2.63,0,0,1-.49-.83,2.71,2.71,0,0,1-.13-.67,1.45,1.45,0,0,1,0-.47l.07-.18h3.7a3,3,0,0,0-.09.37,1.57,1.57,0,0,0,.3.84,2.78,2.78,0,0,0,1.23,1,5.26,5.26,0,0,0,2.15.56,4.47,4.47,0,0,0,2-.32q.77-.33.58-.87a3.2,3.2,0,0,0-.82-1.16,11.84,11.84,0,0,1-1.13-1.29,1.33,1.33,0,0,1-.16-1.43,3.45,3.45,0,0,1,1.89-1.43,10.18,10.18,0,0,1,3.76-.74,10.86,10.86,0,0,1,4,.62l2.12-.91,2.32,1.26-2.13.91A3,3,0,0,1,172,175.66Z" fill="#ea8b24"/><path d="M161.8,188.14c-9.81,0-17.8-4.82-17.8-10.75s8-10.75,17.8-10.75,17.8,4.82,17.8,10.75S171.61,188.14,161.8,188.14Zm0-19.93c-8.94,0-16.22,4.12-16.22,9.17s7.28,9.17,16.22,9.17S178,182.45,178,177.39,170.74,168.22,161.8,168.22Z" fill="#f7931e"/><ellipse cx="168.94" cy="173.66" rx="20.26" ry="11.87" fill="#ff912e"/><polygon points="148.68 173.66 148.68 170.23 150.89 172.97 148.68 173.66" fill="#e0944f"/><polygon points="189.2 170.23 189.2 173.66 186.63 173.66 188.51 170.9 189.2 170.23" fill="#e0944f"/><ellipse cx="168.94" cy="170.23" rx="20.26" ry="11.87" fill="#ffb92c"/><path d="M179.22,168.64a1.58,1.58,0,0,1,.16.9l-.08.31-3.7,0a1.68,1.68,0,0,0,.07-.31,1.38,1.38,0,0,0-.22-.67,2,2,0,0,0-.89-.82,4,4,0,0,0-1.74-.46,3.75,3.75,0,0,0-1.65.25q-.78.33-.6.87a3.2,3.2,0,0,0,.79,1.16,14.08,14.08,0,0,1,1.12,1.29,1.35,1.35,0,0,1,.2,1.43,3.19,3.19,0,0,1-1.8,1.4,10.64,10.64,0,0,1-3.92.82,12.54,12.54,0,0,1-4.29-.61l-2.13.91-2.49-1.21,2.07-.89a4.67,4.67,0,0,1-1-.89,2.63,2.63,0,0,1-.49-.83,2.71,2.71,0,0,1-.13-.67,1.45,1.45,0,0,1,0-.47l.07-.18h3.7a3,3,0,0,0-.09.37,1.57,1.57,0,0,0,.3.84,2.78,2.78,0,0,0,1.23,1,5.26,5.26,0,0,0,2.15.56,4.47,4.47,0,0,0,2-.32q.77-.33.58-.87a3.2,3.2,0,0,0-.82-1.16,11.84,11.84,0,0,1-1.13-1.29,1.33,1.33,0,0,1-.16-1.43,3.45,3.45,0,0,1,1.89-1.43,10.18,10.18,0,0,1,3.76-.74,10.86,10.86,0,0,1,4,.62l2.12-.91,2.32,1.26-2.13.91A3,3,0,0,1,179.22,168.64Z" fill="#ea8b24"/><path d="M169,180.86c-9.67,0-17.53-4.71-17.53-10.49s7.87-10.49,17.53-10.49,17.53,4.71,17.53,10.49S178.64,180.86,169,180.86Zm0-19.93c-9.09,0-16.48,4.23-16.48,9.44s7.39,9.44,16.48,9.44,16.48-4.23,16.48-9.44S178.06,160.93,169,160.93Z" fill="#f7931e"/><ellipse cx="159.11" cy="163.67" rx="20.26" ry="11.87" fill="#ff912e"/><polygon points="138.85 163.67 138.85 160.24 141.06 162.98 138.85 163.67" fill="#e0944f"/><polygon points="179.37 160.24 179.37 163.67 176.8 163.67 178.68 160.92 179.37 160.24" fill="#e0944f"/><ellipse cx="159.11" cy="160.24" rx="20.26" ry="11.87" fill="#ffb92c"/><path d="M169.39,158.65a1.58,1.58,0,0,1,.16.9l-.08.31-3.7,0a1.68,1.68,0,0,0,.07-.31,1.38,1.38,0,0,0-.22-.67,2,2,0,0,0-.89-.82,4,4,0,0,0-1.74-.46,3.75,3.75,0,0,0-1.65.25q-.78.33-.6.87a3.2,3.2,0,0,0,.79,1.16,14.08,14.08,0,0,1,1.12,1.29,1.35,1.35,0,0,1,.2,1.43,3.19,3.19,0,0,1-1.8,1.4,10.64,10.64,0,0,1-3.92.82,12.54,12.54,0,0,1-4.29-.61l-2.13.91-2.49-1.21,2.07-.89a4.67,4.67,0,0,1-1-.89,2.63,2.63,0,0,1-.49-.83,2.71,2.71,0,0,1-.13-.67,1.45,1.45,0,0,1,0-.47l.07-.18h3.7a3,3,0,0,0-.09.37,1.57,1.57,0,0,0,.3.84,2.78,2.78,0,0,0,1.23,1,5.26,5.26,0,0,0,2.15.56,4.47,4.47,0,0,0,2-.32q.77-.33.58-.87a3.2,3.2,0,0,0-.82-1.16,11.84,11.84,0,0,1-1.13-1.29,1.33,1.33,0,0,1-.16-1.43,3.45,3.45,0,0,1,1.89-1.43,10.18,10.18,0,0,1,3.76-.74,10.86,10.86,0,0,1,4,.62l2.12-.91,2.32,1.26-2.13.91A3,3,0,0,1,169.39,158.65Z" fill="#ea8b24"/><path d="M159.15,170.87c-9.67,0-17.53-4.71-17.53-10.49s7.86-10.49,17.53-10.49,17.53,4.71,17.53,10.49S168.81,170.87,159.15,170.87Zm0-19.93c-9.09,0-16.48,4.23-16.48,9.44s7.39,9.44,16.48,9.44,16.48-4.23,16.48-9.44S168.23,150.95,159.15,150.95Z" fill="#f7931e"/><path d="M126.26,157.13l3.18,4s2.41.51,2.73,1.34a4.13,4.13,0,0,1-.88,3.41c-.73.66-2.65,1.59-3.31,1.32s.2-2.12-.79-2.64a1.29,1.29,0,0,0-1.65.4l-.93-2-2.32-3.39" fill="#ffd188"/><path d="M136.6,150.75l3.18,4s2.41.51,2.73,1.34a4.13,4.13,0,0,1-.88,3.41c-.73.66-2.65,1.59-3.31,1.32s.2-2.12-.79-2.64a1.29,1.29,0,0,0-1.65.4l-.93-2-2.32-3.39" fill="#ffd188"/><path d="M112.08,151a8.06,8.06,0,0,1,.78-1.82l.24-.13,1.08-2.3.09.17c2.82-6.73,7.37-8.82,6.51-16a45.08,45.08,0,0,0-6.23-5.72,18.29,18.29,0,0,0-4.5.19c-4.18.7-7.18,4.35-9.56,7.6a75.43,75.43,0,0,0-8.54,16.14c1.73,1.84,6.17,3.36,8.43,4.58a18.8,18.8,0,0,0,6.38-.08A24.74,24.74,0,0,0,112.08,151Z" fill="#443ce5"/><path d="M117.92,126.88c.53.4,21.37,22.34,20.71,24.2s-3.56,4.62-5.54,3.83-9.23-10.6-9.23-10.6l-9.19-9.17Z" fill="#443ce5"/><path d="M123.19,162.65c2.45-.85,4.8-2.5,5.53-4.93l-14.69-19-6.29-11.88c-1.09.85-6.67,6.88-3.38,12.95S119.33,160.81,123.19,162.65Z" fill="#443ce5"/><path d="M124.56,122.35s-2.42,6.17-8.9,5.14-1.22-12.09,3.5-12S126,119.68,124.56,122.35Z" fill="#ffd188"/><path d="M124.64,115.31a2.63,2.63,0,0,0-1.9-2.9,7.37,7.37,0,0,0-4.39-.34c-2.3-.24-4.8-.2-6.21,1.69s-1.19,4.41-.8,6.71a10,10,0,0,0,.25,2.41,15.07,15.07,0,0,1,.9,2.55l1.38-2.55s.39-.46,4.24.7,4.19-1.63,4.19-1.63a4.28,4.28,0,0,0,6.13-3.79C128.4,115.9,125.67,115.42,124.64,115.31Z" fill="#4c0d0a"/><path d="M112.25,151.07c.51-.41-8.32-12-8.32-12l2.49,14.68A14.61,14.61,0,0,0,112.25,151.07Z" fill="#2929b2"/><path d="M115.62,120.08c-2.31.55-1.46,3.8-.13,4.86a.66.66,0,0,0,1-.16.62.62,0,0,0,.77-.39C117.66,123.13,118.06,119.51,115.62,120.08Z" fill="#ffd188"/><path d="M179.37,276.61l38.85-29.74-26.35-14.45L153.14,261C159.46,264.88,173.16,272.6,179.37,276.61Z" fill="url(#linear-gradient-5)"/><ellipse cx="203.66" cy="240.94" rx="16.68" ry="9.77" fill="#ff912e"/><polygon points="186.98 240.94 186.98 238.12 188.8 240.38 186.98 240.94" fill="#e0944f"/><polygon points="220.33 238.12 220.33 240.94 218.22 240.94 219.77 238.68 220.33 238.12" fill="#e0944f"/><ellipse cx="203.66" cy="238.12" rx="16.68" ry="9.77" fill="#ffb92c"/><path d="M212.12,236.81a1.3,1.3,0,0,1,.13.74l-.07.26-3,0a1.38,1.38,0,0,0,.06-.26A1.14,1.14,0,0,0,209,237a1.67,1.67,0,0,0-.74-.68,3.33,3.33,0,0,0-1.43-.37,3.08,3.08,0,0,0-1.36.21q-.64.27-.49.72a2.64,2.64,0,0,0,.65,1,11.59,11.59,0,0,1,.92,1.06,1.11,1.11,0,0,1,.17,1.17,2.62,2.62,0,0,1-1.48,1.15,8.76,8.76,0,0,1-3.23.67,10.32,10.32,0,0,1-3.53-.5l-1.75.75-2.05-1,1.7-.73a3.84,3.84,0,0,1-.82-.73,2.17,2.17,0,0,1-.4-.68,2.23,2.23,0,0,1-.1-.55,1.19,1.19,0,0,1,0-.38l.06-.14h3a2.43,2.43,0,0,0-.07.31,1.3,1.3,0,0,0,.25.69,2.28,2.28,0,0,0,1,.86,4.33,4.33,0,0,0,1.77.46,3.68,3.68,0,0,0,1.63-.26q.63-.27.48-.71a2.63,2.63,0,0,0-.67-1,9.75,9.75,0,0,1-.93-1.06,1.09,1.09,0,0,1-.13-1.18,2.84,2.84,0,0,1,1.55-1.17,8.38,8.38,0,0,1,3.1-.61,8.94,8.94,0,0,1,3.3.51l1.75-.75,1.91,1-1.75.75A2.49,2.49,0,0,1,212.12,236.81Z" fill="#ea8b24"/><path d="M203.69,246.87c-8,0-14.43-3.87-14.43-8.63s6.47-8.63,14.43-8.63,14.43,3.87,14.43,8.63S211.65,246.87,203.69,246.87Zm0-16.4c-7.48,0-13.57,3.48-13.57,7.77s6.09,7.77,13.57,7.77,13.57-3.48,13.57-7.77S211.17,230.47,203.69,230.47Z" fill="#f7931e"/></svg>