<svg xmlns="http://www.w3.org/2000/svg"  viewBox="0 0 24 24" width="24px" height="24px" clip-rule="evenodd"><path d="M 5 1.25 C 4.271 1.25 3.5706875 1.5396875 3.0546875 2.0546875 C 2.5396875 2.5706875 2.25 3.271 2.25 4 L 2.25 20 C 2.25 20.729 2.5396875 21.429312 3.0546875 21.945312 C 3.5706875 22.460313 4.271 22.75 5 22.75 L 19 22.75 C 19.729 22.75 20.429313 22.460312 20.945312 21.945312 C 21.460313 21.429313 21.75 20.729 21.75 20 L 21.75 4 C 21.75 3.271 21.460313 2.5706875 20.945312 2.0546875 C 20.429313 1.5396875 19.729 1.25 19 1.25 L 5 1.25 z M 5 2.75 L 19 2.75 C 19.332 2.75 19.649766 2.8812344 19.884766 3.1152344 C 20.118766 3.3502344 20.25 3.668 20.25 4 L 20.25 6.25 L 3.75 6.25 L 3.75 4 C 3.75 3.668 3.8812344 3.3502344 4.1152344 3.1152344 C 4.3502344 2.8812344 4.668 2.75 5 2.75 z M 6.5 3.5 A 1 1 0 0 0 6.5 5.5 A 1 1 0 0 0 6.5 3.5 z M 9.5 3.5 A 1 1 0 0 0 9.5 5.5 A 1 1 0 0 0 9.5 3.5 z M 16 3.75 C 15.586 3.75 15.25 4.086 15.25 4.5 C 15.25 4.914 15.586 5.25 16 5.25 L 18 5.25 C 18.414 5.25 18.75 4.914 18.75 4.5 C 18.75 4.086 18.414 3.75 18 3.75 L 16 3.75 z M 3.75 7.75 L 20.25 7.75 L 20.25 20 C 20.25 20.332 20.118766 20.649766 19.884766 20.884766 C 19.649766 21.118766 19.332 21.25 19 21.25 L 5 21.25 C 4.668 21.25 4.3502344 21.118766 4.1152344 20.884766 C 3.8812344 20.649766 3.75 20.332 3.75 20 L 3.75 7.75 z M 12 8.75 C 10.581045 8.75 9.2844434 9.2681511 8.28125 10.121094 C 8.2752002 10.125968 8.2676525 10.127723 8.2617188 10.132812 C 8.2097982 10.177274 8.1635717 10.227186 8.1132812 10.273438 C 8.0359189 10.344622 7.9581284 10.414955 7.8847656 10.490234 C 7.818414 10.558298 7.7562945 10.629904 7.6933594 10.701172 C 7.6287792 10.774318 7.5647526 10.847446 7.5039062 10.923828 C 7.4476623 10.99441 7.3947292 11.067399 7.3417969 11.140625 C 7.2748395 11.233281 7.2098951 11.327144 7.1484375 11.423828 C 7.1090407 11.48578 7.0702616 11.547799 7.0332031 11.611328 C 6.9670863 11.724685 6.9060682 11.840875 6.8476562 11.958984 C 6.8203815 12.014138 6.7931165 12.068865 6.7675781 12.125 C 6.709214 12.253264 6.6564267 12.384491 6.6074219 12.517578 C 6.5866259 12.574063 6.5659309 12.6302 6.546875 12.6875 C 6.5070032 12.807338 6.4734533 12.929546 6.4414062 13.052734 C 6.4207549 13.132152 6.3981587 13.210306 6.3808594 13.291016 C 6.3564815 13.404676 6.3398089 13.520681 6.3222656 13.636719 C 6.3097438 13.719583 6.2921449 13.800785 6.2832031 13.884766 C 6.2616611 14.08695 6.25 14.29213 6.25 14.5 C 6.25 14.70787 6.2616611 14.91305 6.2832031 15.115234 C 6.2921449 15.199215 6.3097438 15.280417 6.3222656 15.363281 C 6.3398089 15.479319 6.3564815 15.595324 6.3808594 15.708984 C 6.3981587 15.789694 6.4207549 15.867848 6.4414062 15.947266 C 6.4734533 16.070454 6.5070032 16.192662 6.546875 16.3125 C 6.5659309 16.3698 6.5866259 16.425937 6.6074219 16.482422 C 6.6564267 16.615509 6.709214 16.746736 6.7675781 16.875 C 6.7931165 16.931135 6.8203815 16.985862 6.8476562 17.041016 C 6.9060682 17.159125 6.9670863 17.275315 7.0332031 17.388672 C 7.0702616 17.452201 7.1090407 17.51422 7.1484375 17.576172 C 7.2098951 17.672856 7.2748395 17.766719 7.3417969 17.859375 C 7.3947292 17.932601 7.4476623 18.00559 7.5039062 18.076172 C 7.5647526 18.152554 7.6287792 18.225682 7.6933594 18.298828 C 7.7562945 18.370096 7.818414 18.441702 7.8847656 18.509766 C 7.9581284 18.585045 8.0359189 18.655378 8.1132812 18.726562 C 8.1635717 18.772814 8.2097982 18.822726 8.2617188 18.867188 C 8.2676525 18.872277 8.2752002 18.874032 8.28125 18.878906 C 9.2844434 19.731849 10.581045 20.25 12 20.25 C 15.174 20.25 17.75 17.674 17.75 14.5 C 17.75 11.326 15.174 8.75 12 8.75 z M 12 10.25 C 14.346 10.25 16.25 12.154 16.25 14.5 C 16.25 16.846 14.346 18.75 12 18.75 C 11.235489 18.75 10.52824 18.531536 9.9082031 18.177734 C 10.742049 17.179811 11.25 15.900763 11.25 14.5 C 11.25 13.099237 10.742049 11.820189 9.9082031 10.822266 C 10.52824 10.468464 11.235489 10.25 12 10.25 z M 8.7617188 11.779297 C 9.3782016 12.517186 9.75 13.465009 9.75 14.5 C 9.75 15.534991 9.3782016 16.482814 8.7617188 17.220703 C 8.706286 17.154818 8.6490721 17.09069 8.5976562 17.021484 C 8.5365803 16.93934 8.475048 16.858055 8.4199219 16.771484 C 8.3329344 16.634758 8.258696 16.490479 8.1875 16.34375 C 8.1440112 16.254132 8.0958304 16.167216 8.0585938 16.074219 C 7.9933466 15.91116 7.9472298 15.738683 7.9023438 15.566406 C 7.8801557 15.481188 7.8489688 15.399699 7.8320312 15.3125 C 7.7807997 15.048873 7.75 14.778535 7.75 14.5 C 7.75 14.221465 7.7807997 13.951127 7.8320312 13.6875 C 7.8489688 13.60033 7.8801557 13.518783 7.9023438 13.433594 C 7.9472298 13.261317 7.9933466 13.08884 8.0585938 12.925781 C 8.0958304 12.832806 8.1440112 12.745862 8.1875 12.65625 C 8.258696 12.509521 8.3329344 12.365242 8.4199219 12.228516 C 8.475048 12.14191 8.5365803 12.06073 8.5976562 11.978516 C 8.6490721 11.90931 8.706286 11.845182 8.7617188 11.779297 z"/></svg>