<svg xmlns="http://www.w3.org/2000/svg"  viewBox="0 0 68 68" width="50px" height="50px"><path stroke="#121212" stroke-width="1" d="M 35.681641 2.0097656 C 35.240417 1.9737549 34.826904 2.0551757 34.472656 2.2597656 L 6.3398438 18.646484 C 6.3299679 18.6519 6.3183943 18.652605 6.3085938 18.658203 C 5.599121 19.066406 5.2060547 19.893555 5.203125 20.986328 L 5.1347656 45.40625 C 5.128418 47.521484 6.5595703 50.010742 8.3945312 51.072266 L 34.068359 65.941406 L 34.072266 65.943359 C 34.07268 65.943602 34.071851 65.945072 34.072266 65.945312 C 34.133789 65.980469 34.20459 65.998047 34.273438 65.998047 C 34.342285 65.998047 34.411133 65.980469 34.472656 65.945312 C 34.473483 65.944837 34.473787 65.94384 34.474609 65.943359 L 62.650391 49.539062 C 62.772949 49.467773 62.849121 49.337891 62.849609 49.195312 L 62.865234 43.148438 C 62.865239 43.147133 62.865243 43.145833 62.865234 43.144531 C 62.865235 43.143884 62.865237 43.143226 62.865234 43.142578 C 62.865234 43.072432 62.846383 43.006446 62.8125 42.947266 C 62.81227 42.946866 62.812732 42.945711 62.8125 42.945312 C 62.778245 42.886139 62.727214 42.836388 62.666016 42.800781 C 62.665605 42.800542 62.666427 42.799066 62.666016 42.798828 L 45.382812 32.791016 C 44.911419 32.239682 44.375604 31.700447 43.787109 31.173828 C 43.805756 30.976902 43.826172 30.78134 43.826172 30.59375 L 43.826172 30.591797 C 43.822541 29.649829 43.589425 28.871153 43.166016 28.302734 L 43.226562 6.265625 C 43.227051 6.1220703 43.149902 5.9902343 43.025391 5.9179688 C 43.021152 5.9155323 43.016025 5.9163324 43.011719 5.9140625 L 37.060547 2.4707031 C 36.592285 2.1992187 36.122864 2.0457764 35.681641 2.0097656 z M 35.679688 2.8105469 C 35.984009 2.8465576 36.318603 2.9658203 36.660156 3.1640625 L 42.023438 6.2675781 L 35.46875 10.085938 L 14.648438 22.208984 L 8.8847656 18.876953 C 8.6332285 18.732074 8.3857902 18.625665 8.1425781 18.546875 C 8.1341621 18.544155 8.1255918 18.5378 8.1171875 18.535156 L 34.875 2.953125 C 35.101318 2.8217774 35.375366 2.7745361 35.679688 2.8105469 z M 42.423828 6.9609375 L 42.367188 27.599609 L 38.140625 25.136719 L 33.292969 22.308594 C 33.274665 20.420703 32.605713 18.999975 31.400391 18.308594 C 30.178223 17.607422 28.583496 17.755859 26.916016 18.726562 C 23.63623 20.614258 20.976074 25.230469 20.986328 29.015625 C 20.991699 30.910156 21.655762 32.337891 22.857422 33.037109 C 23.369141 33.334961 23.945801 33.484375 24.568359 33.484375 C 25.343146 33.484375 26.187871 33.24417 27.056641 32.789062 L 33.589844 36.603516 L 14.978516 47.425781 L 14.994141 41.429688 L 15.046875 22.90625 L 42.423828 6.9609375 z M 29.703125 18.673828 C 30.180176 18.673828 30.618652 18.78418 31.001953 19.003906 C 31.852051 19.491211 32.365723 20.483398 32.474609 21.830078 L 30.873047 20.896484 C 30.762503 20.83373 30.647655 20.780563 30.529297 20.736328 C 30.527969 20.73582 30.52672 20.73488 30.525391 20.734375 C 30.40675 20.69028 30.283866 20.654488 30.158203 20.628906 C 29.650879 20.523407 29.087646 20.572052 28.496094 20.771484 C 28.201576 20.869843 27.900513 21.005371 27.595703 21.177734 C 27.303589 21.346802 27.017581 21.546768 26.742188 21.771484 C 26.740746 21.772657 26.739722 21.774217 26.738281 21.775391 C 26.464385 21.999222 26.200906 22.246551 25.949219 22.515625 C 24.448326 24.116174 23.398686 26.431595 23.380859 28.4375 C 23.380631 28.46245 23.374905 28.488822 23.375 28.513672 C 23.375 28.513672 23.375 28.515625 23.375 28.515625 C 23.375 28.515625 23.375 28.517578 23.375 28.517578 C 23.375 29.033203 23.443907 29.505018 23.576172 29.916016 C 23.620079 30.052112 23.672744 30.183517 23.730469 30.306641 C 23.730469 30.306641 23.730469 30.308594 23.730469 30.308594 C 23.788062 30.430976 23.852899 30.547452 23.923828 30.65625 C 23.923828 30.65625 23.923828 30.658203 23.923828 30.658203 C 23.995301 30.767696 24.07356 30.869867 24.158203 30.964844 C 24.158203 30.964844 24.158203 30.966797 24.158203 30.966797 C 24.243015 31.061653 24.333968 31.147383 24.431641 31.226562 C 24.431641 31.226562 24.433594 31.226562 24.433594 31.226562 C 24.452068 31.241525 24.473261 31.253192 24.492188 31.267578 C 24.507395 31.279131 24.523565 31.289603 24.539062 31.300781 C 24.606614 31.35008 24.673079 31.401164 24.746094 31.443359 L 26.228516 32.308594 C 25.091497 32.792197 24.05517 32.808998 23.259766 32.345703 C 22.313477 31.794922 21.789551 30.612305 21.785156 29.013672 C 21.775879 25.484375 24.256348 21.181641 27.316406 19.419922 C 28.166992 18.924805 28.97998 18.673828 29.703125 18.673828 z M 7.421875 19.21875 C 7.5097369 19.224746 7.6022308 19.242995 7.6953125 19.263672 C 7.7762325 19.28155 7.8554345 19.295497 7.9394531 19.324219 C 8.086903 19.375006 8.2388598 19.445002 8.3945312 19.529297 C 8.4236381 19.545106 8.4512113 19.55333 8.4804688 19.570312 L 12.15625 21.693359 L 14.246094 22.902344 L 14.175781 48.123047 L 14.175781 48.126953 C 14.176224 48.19732 14.194597 48.265371 14.228516 48.324219 C 14.228516 48.324219 14.228516 48.326172 14.228516 48.326172 C 14.262939 48.386108 14.313232 48.437012 14.375 48.472656 L 23.197266 53.585938 L 33.888672 59.785156 L 33.875 64.90625 L 8.7949219 50.380859 C 7.2114258 49.463867 5.9282227 47.233398 5.9335938 45.408203 L 6.0019531 20.988281 C 6.0043732 20.200287 6.2530295 19.625324 6.6972656 19.361328 C 6.6998612 19.359867 6.702503 19.358948 6.7050781 19.357422 L 6.7167969 19.351562 C 6.8208651 19.291603 6.9364441 19.253787 7.0605469 19.230469 C 7.0826027 19.226255 7.1063386 19.225721 7.1289062 19.222656 C 7.2215297 19.210428 7.3209829 19.211802 7.421875 19.21875 z M 29.400391 21.392578 C 29.555204 21.378032 29.70139 21.385627 29.84375 21.402344 C 29.896281 21.408792 29.951357 21.41104 30.001953 21.421875 C 30.1363 21.449724 30.261251 21.498525 30.380859 21.556641 C 30.410327 21.571376 30.444179 21.577129 30.472656 21.59375 L 35.521484 24.535156 L 40.4375 27.40625 C 40.272478 27.445033 40.104555 27.508427 39.935547 27.572266 C 39.691155 27.662654 39.443294 27.771026 39.195312 27.912109 C 39.192643 27.913655 39.19017 27.914464 39.1875 27.916016 C 39.1875 27.916016 39.185547 27.917969 39.185547 27.917969 C 39.178469 27.922015 39.171141 27.923646 39.164062 27.927734 C 39.147823 27.937145 39.133378 27.951354 39.117188 27.960938 C 39.093493 27.97566 39.069205 27.987542 39.042969 28.005859 C 39.040557 28.007321 39.037568 28.008299 39.035156 28.009766 C 39.033472 28.01095 39.032947 28.012474 39.03125 28.013672 C 38.807164 28.150191 38.587794 28.307035 38.373047 28.476562 C 38.273023 28.55566 38.17926 28.645248 38.082031 28.730469 C 37.941887 28.853231 37.804193 28.978113 37.669922 29.113281 C 37.556212 29.227645 37.446478 29.344835 37.337891 29.466797 C 37.226158 29.592436 37.119806 29.724065 37.013672 29.857422 C 36.912895 29.983809 36.809843 30.106089 36.714844 30.238281 C 36.594381 30.406293 36.483754 30.582989 36.373047 30.759766 C 36.215939 31.009811 36.072155 31.264681 35.9375 31.527344 C 35.882719 31.634726 35.826228 31.740338 35.775391 31.849609 C 35.681912 32.04932 35.598645 32.249392 35.519531 32.453125 C 35.486044 32.539972 35.456594 32.62729 35.425781 32.714844 C 35.34704 32.936838 35.271042 33.159173 35.210938 33.382812 C 35.210938 33.382812 35.210938 33.384766 35.210938 33.384766 C 35.210093 33.387938 35.209825 33.391358 35.208984 33.394531 C 35.208984 33.394531 35.208984 33.396484 35.208984 33.396484 C 35.040895 34.026691 34.935547 34.659146 34.935547 35.267578 C 34.938166 35.550568 34.967775 35.813878 35.009766 36.066406 C 35.009766 36.066406 35.009766 36.068359 35.009766 36.068359 C 35.010209 36.071115 35.01127 36.073421 35.011719 36.076172 C 35.039787 36.24264 35.068587 36.406788 35.113281 36.558594 L 27.285156 31.996094 C 27.285156 31.996094 27.283203 31.994141 27.283203 31.994141 C 27.280778 31.992658 27.279808 31.989717 27.277344 31.988281 L 25.144531 30.746094 C 25.050478 30.692559 24.975633 30.609996 24.894531 30.537109 C 24.841377 30.489339 24.777907 30.456122 24.730469 30.400391 C 24.610215 30.258645 24.508025 30.092838 24.425781 29.904297 C 24.425781 29.904297 24.425781 29.902344 24.425781 29.902344 C 24.343414 29.713135 24.280449 29.501282 24.238281 29.269531 C 24.196297 29.036926 24.175781 28.783203 24.175781 28.511719 C 24.169989 26.98926 24.834286 25.256094 25.849609 23.871094 C 25.850706 23.869599 25.852418 23.868681 25.853516 23.867188 C 26.055841 23.591539 26.272536 23.329498 26.5 23.085938 C 26.5 23.085938 26.501953 23.085938 26.501953 23.085938 C 26.501953 23.085938 26.503906 23.083984 26.503906 23.083984 C 26.503906 23.083984 26.503906 23.082031 26.503906 23.082031 C 26.731445 22.83872 26.971198 22.614471 27.21875 22.412109 C 27.467926 22.209141 27.725891 22.029419 27.990234 21.876953 C 28.02581 21.856607 28.060368 21.843339 28.095703 21.824219 C 28.271627 21.730057 28.446102 21.649825 28.615234 21.585938 C 28.658527 21.569388 28.701402 21.549688 28.744141 21.535156 C 28.943328 21.468258 29.136752 21.421899 29.322266 21.398438 C 29.348812 21.395058 29.374174 21.395047 29.400391 21.392578 z M 40.966797 28.138672 C 41.140192 28.122197 41.305373 28.125858 41.462891 28.148438 C 41.488397 28.152294 41.515964 28.151336 41.541016 28.15625 C 41.717364 28.189307 41.881995 28.245621 42.03125 28.330078 C 42.035945 28.333017 42.041367 28.337622 42.044922 28.339844 C 42.069104 28.35405 42.086027 28.379048 42.109375 28.394531 C 42.235083 28.477495 42.359596 28.573536 42.458984 28.691406 C 42.810425 29.107023 43.006825 29.728686 43.023438 30.505859 C 42.995852 30.48301 42.963355 30.460316 42.935547 30.4375 C 42.535193 30.10969 42.117176 29.783876 41.667969 29.460938 C 41.589196 29.404112 41.500288 29.347774 41.419922 29.291016 C 41.087551 29.057183 40.741764 28.823215 40.380859 28.589844 C 40.274852 28.52092 40.182797 28.451807 40.074219 28.382812 C 40.116902 28.365083 40.160834 28.338072 40.203125 28.322266 C 40.251143 28.304015 40.298345 28.291103 40.345703 28.275391 C 40.519373 28.218825 40.6895 28.175457 40.853516 28.152344 C 40.89138 28.146972 40.92957 28.142193 40.966797 28.138672 z M 39.265625 28.828125 C 40.010238 29.286075 40.692524 29.74108 41.322266 30.199219 C 41.971252 30.672727 42.565328 31.148111 43.109375 31.632812 C 43.112281 31.635396 43.116175 31.636183 43.119141 31.638672 C 43.975774 32.389935 44.695094 33.16845 45.294922 33.964844 C 45.547784 34.299566 45.782955 34.639799 45.990234 34.984375 C 46.008667 35.014996 46.026864 35.0455 46.044922 35.076172 C 46.188221 35.319767 46.319323 35.564833 46.439453 35.8125 C 46.455942 35.846483 46.474198 35.880024 46.490234 35.914062 C 46.620318 36.190188 46.738988 36.4678 46.839844 36.748047 C 47.089355 37.446289 47.235352 38.223633 47.316406 39.271484 L 47.359375 39.740234 L 47.960938 46.226562 C 47.943358 47.900392 45.458984 48.479492 44.695312 48.617188 C 42.638239 48.986875 40.13668 48.695057 38.751953 47.824219 C 38.751953 47.824219 38.75 47.822266 38.75 47.822266 C 38.635439 47.750113 38.529991 47.67379 38.431641 47.59375 C 38.431641 47.59375 38.429688 47.591797 38.429688 47.591797 C 38.331886 47.512054 38.242076 47.427311 38.162109 47.339844 C 38.081471 47.251307 38.007851 47.156839 37.947266 47.060547 C 37.887138 46.964941 37.837429 46.864914 37.798828 46.761719 C 37.755566 46.64697 37.740341 46.513914 37.742188 46.371094 C 37.742434 46.359362 37.739705 46.347636 37.740234 46.335938 C 37.746051 46.187581 37.773018 46.028969 37.826172 45.865234 C 38.07243 45.086656 38.274113 44.392798 38.425781 43.748047 C 38.426269 43.745978 38.427247 43.744255 38.427734 43.742188 C 38.503001 43.421762 38.56566 43.113441 38.615234 42.8125 C 38.615679 42.809803 38.616745 42.807383 38.617188 42.804688 C 38.766164 41.896592 38.792955 41.058088 38.679688 40.162109 C 38.679454 40.160267 38.679922 40.158093 38.679688 40.15625 C 38.603592 39.557449 38.464722 38.931885 38.255859 38.246094 C 38.250356 38.221523 38.237122 38.193221 38.230469 38.169922 C 38.210583 38.099622 38.190109 38.026057 38.171875 37.980469 C 38.171875 37.980469 38.169922 37.978516 38.169922 37.978516 C 38.034131 37.52516 37.871498 37.077078 37.691406 36.628906 C 37.649044 36.523325 37.599488 36.417631 37.554688 36.3125 C 37.409928 35.973054 37.251555 35.630449 37.078125 35.287109 C 37.046422 35.224676 37.022892 35.162095 36.990234 35.099609 C 36.945174 35.0109 36.892635 34.922684 36.845703 34.833984 C 36.777731 34.70783 36.710777 34.580488 36.638672 34.453125 C 36.463982 34.140825 36.279242 33.830995 36.083984 33.523438 C 36.064448 33.49236 36.049083 33.462824 36.029297 33.431641 C 36.079726 33.257322 36.142177 33.084958 36.205078 32.912109 C 36.235232 32.829914 36.264056 32.747781 36.296875 32.666016 C 36.362433 32.501749 36.43406 32.338859 36.509766 32.177734 C 36.567167 32.055972 36.628562 31.936036 36.691406 31.816406 C 36.799176 31.610929 36.914868 31.411189 37.037109 31.214844 C 37.136722 31.054974 37.235302 30.894907 37.34375 30.742188 C 37.427501 30.624143 37.517146 30.513107 37.605469 30.400391 C 37.700592 30.279163 37.798203 30.161517 37.898438 30.046875 C 37.992338 29.939312 38.085996 29.831171 38.183594 29.730469 C 38.360257 29.548579 38.542307 29.374564 38.730469 29.216797 C 38.820513 29.14125 38.914004 29.078651 39.005859 29.009766 C 39.091509 28.945434 39.178246 28.886764 39.265625 28.828125 z M 46.582031 34.408203 L 61.669922 43.144531 L 44.734375 53.007812 L 34.287109 59.089844 L 23.533203 52.855469 L 15.373047 48.123047 L 34.384766 37.066406 L 36.314453 38.189453 C 36.318848 38.192383 36.322754 38.195313 36.326172 38.197266 C 36.345215 38.207031 36.364746 38.21582 36.384766 38.222656 C 36.401417 38.231677 36.420627 38.235544 36.4375 38.244141 C 36.562875 38.306787 36.69411 38.356832 36.832031 38.396484 C 36.880799 38.410875 36.928527 38.426167 36.978516 38.4375 C 37.106446 38.465657 37.240029 38.481733 37.376953 38.490234 C 37.417461 38.492837 37.455064 38.505102 37.496094 38.505859 C 38.243699 41.01548 38.032415 42.564556 37.058594 45.625 C 36.997107 45.830707 36.966666 46.025794 36.951172 46.212891 C 36.948004 46.250111 36.942721 46.282092 36.941406 46.320312 C 36.938257 46.406568 36.944171 46.488579 36.951172 46.570312 C 36.954155 46.604494 36.95406 46.637352 36.958984 46.671875 C 36.97715 46.801378 37.004009 46.926298 37.048828 47.042969 C 37.052674 47.05329 37.060459 47.062007 37.064453 47.072266 C 37.132172 47.246706 37.226048 47.409977 37.333984 47.566406 C 37.361312 47.605983 37.388242 47.64517 37.417969 47.683594 C 37.537632 47.838469 37.672424 47.985048 37.828125 48.121094 C 37.859679 48.148632 37.894818 48.174406 37.927734 48.201172 C 38.040178 48.292727 38.167549 48.374544 38.294922 48.457031 C 38.47595 48.574184 38.671549 48.680495 38.878906 48.779297 C 38.957942 48.816986 39.030861 48.857568 39.113281 48.892578 C 39.413972 49.020271 39.73222 49.134657 40.070312 49.226562 C 40.395301 49.31483 40.737244 49.38252 41.085938 49.4375 C 41.215644 49.457996 41.346533 49.470451 41.478516 49.486328 C 41.71445 49.514661 41.950629 49.53729 42.191406 49.550781 C 42.327933 49.558496 42.462312 49.565418 42.599609 49.568359 C 42.682033 49.570089 42.763164 49.578125 42.845703 49.578125 C 43.010782 49.578125 43.175027 49.563581 43.339844 49.556641 C 43.476565 49.551005 43.61214 49.549463 43.748047 49.539062 C 44.042257 49.516266 44.330941 49.478974 44.617188 49.433594 C 44.691057 49.422011 44.768698 49.419329 44.841797 49.40625 C 46.270399 49.149085 47.350426 48.633352 48.015625 47.9375 C 48.35317 47.586773 48.591633 47.194264 48.695312 46.761719 C 48.716593 46.674288 48.717067 46.580668 48.728516 46.490234 C 48.739696 46.396475 48.761719 46.305634 48.761719 46.208984 C 48.761719 46.205652 48.76179 46.202451 48.761719 46.199219 C 48.761775 46.191853 48.763679 46.185118 48.763672 46.177734 L 48.115234 39.203125 C 48.098436 38.986364 48.063745 38.820559 48.041016 38.623047 C 48.004144 38.299114 47.972216 37.964859 47.916016 37.677734 C 47.834864 37.262572 47.732151 36.88452 47.605469 36.523438 C 47.600596 36.509488 47.598693 36.492402 47.59375 36.478516 C 47.476467 36.151157 47.334208 35.827954 47.179688 35.505859 C 47.154938 35.454249 47.129193 35.402998 47.103516 35.351562 C 46.94524 35.0347 46.776114 34.719356 46.582031 34.408203 z M 35.792969 34.595703 C 35.830976 34.66077 35.875238 34.728286 35.912109 34.792969 C 35.965298 34.887277 36.015305 34.981602 36.066406 35.076172 C 36.177599 35.278717 36.280375 35.479668 36.380859 35.679688 C 36.491293 35.898255 36.596765 36.117134 36.695312 36.335938 C 36.763728 36.487967 36.827869 36.641084 36.890625 36.792969 C 36.983353 37.01782 37.070979 37.242822 37.152344 37.470703 C 37.175899 37.536287 37.198096 37.602202 37.220703 37.667969 C 37.216355 37.667161 37.211365 37.668809 37.207031 37.667969 C 37.120976 37.651585 37.048149 37.61267 36.96875 37.583984 C 36.869371 37.547496 36.765658 37.518873 36.677734 37.462891 C 36.22618 37.182741 35.916451 36.66552 35.798828 35.935547 C 35.762695 35.726562 35.746094 35.499023 35.746094 35.263672 C 35.746094 35.139031 35.759509 35.013984 35.767578 34.888672 C 35.77419 34.79126 35.781372 34.694283 35.792969 34.595703 z M 62.064453 43.84375 L 62.048828 48.962891 L 34.673828 64.900391 L 34.689453 59.783203 L 45.109375 53.714844 L 62.064453 43.84375 z"/></svg>